<svg xmlns="http://www.w3.org/2000/svg" version="1.1" xmlns:xlink="http://www.w3.org/1999/xlink" xmlns:svgjs="http://svgjs.dev/svgjs" width="1500" height="1500" viewBox="0 0 1500 1500"><rect width="1500" height="1500" fill="#ffffff"></rect><g transform="matrix(0.6666666666666666,0,0,0.6666666666666666,249.39393939393938,438.5856950067477)"><svg viewBox="0 0 396 247" data-background-color="#ffffff" preserveAspectRatio="xMidYMid meet" height="935" width="1500" xmlns="http://www.w3.org/2000/svg" xmlns:xlink="http://www.w3.org/1999/xlink"><g id="tight-bounds" transform="matrix(1,0,0,1,0.2400000000000091,-0.09999999999999432)"><svg viewBox="0 0 395.52 247.2" height="247.2" width="395.52"><g><svg></svg></g><g><svg viewBox="0 0 395.52 247.2" height="247.2" width="395.52"><g transform="matrix(1,0,0,1,75.54432,82.4910158252292)"><svg viewBox="0 0 244.43135999999998 82.21796834954158" height="82.21796834954158" width="244.43135999999998"><g><svg viewBox="0 0 387.9272404952109 130.4848509657691" height="82.21796834954158" width="244.43135999999998"><g transform="matrix(1,0,0,1,143.49588049521094,38.73351944982524)"><svg viewBox="0 0 244.43135999999998 53.01781206611864" height="53.01781206611864" width="244.43135999999998"><g id="textblocktransform"><svg viewBox="0 0 244.43135999999998 53.01781206611864" height="53.01781206611864" width="244.43135999999998" id="textblock"><g><svg viewBox="0 0 244.43135999999998 27.55686628340411" height="27.55686628340411" width="244.43135999999998"><g transform="matrix(1,0,0,1,0,0)"><svg width="244.43135999999998" viewBox="1.25 -30 270.144171510247 30.6" height="27.55686628340411" data-palette-color="#ffdc00"><g transform="matrix(1,0,0,1,0,0)"><g><svg width="5.549841510247009" viewBox="3.16 -36.36 40.730000000000004 36.36" height="4.954697215774139" data-palette-color="#ffdc00" id="scriptelement" x="264.6949207551235" y="-28.55301860788707"><path d="M18.7 0L3.16 0 3.16-36.36 17.72-36.36Q21.73-36.36 24.41-35.17 27.1-33.98 28.44-31.88 29.79-29.78 29.79-27.04L29.79-27.04Q29.79-24.91 28.94-23.3 28.09-21.7 26.61-20.68 25.12-19.66 23.22-19.23L23.22-19.23 23.22-18.87Q25.3-18.79 27.12-17.7 28.94-16.62 30.08-14.68 31.21-12.73 31.21-10.05L31.21-10.05Q31.21-7.16 29.79-4.89 28.36-2.63 25.57-1.31 22.78 0 18.7 0L18.7 0ZM10.85-15.94L10.85-6.29 17.12-6.29Q20.33-6.29 21.8-7.52 23.28-8.75 23.28-10.81L23.28-10.81Q23.28-12.32 22.55-13.48 21.82-14.63 20.48-15.29 19.14-15.94 17.29-15.94L17.29-15.94 10.85-15.94ZM10.85-30.15L10.85-21.15 16.55-21.15Q18.13-21.15 19.36-21.71 20.6-22.27 21.32-23.3 22.03-24.33 22.03-25.76L22.03-25.76Q22.03-27.73 20.64-28.94 19.25-30.15 16.69-30.15L16.69-30.15 10.85-30.15ZM36.2-36.36L43.89-36.36 43.89 0 36.2 0 36.2-36.36Z" opacity="1" transform="matrix(1,0,0,1,0,0)" fill="#ffdc00" class="undefined-123" data-fill-palette-color="primary" id="tk-123"></path></svg></g></g><path d="M263.546-26.076C263.546-28.243 265.302-30 267.47-30 269.637-30 271.394-28.243 271.394-26.076 271.394-23.908 269.637-22.151 267.47-22.151 265.302-22.151 263.546-23.908 263.546-26.076ZM267.47-22.551C269.416-22.551 270.994-24.129 270.994-26.076 270.994-28.022 269.416-29.6 267.47-29.6 265.523-29.6 263.946-28.022 263.946-26.076 263.946-24.129 265.523-22.551 267.47-22.551Z" fill="#ffdc00" id="scriptcircle" data-fill-palette-color="primary"></path><g class="wordmark-text-0" data-fill-palette-color="primary" id="text-0"><path d="M12.4 0L1.25 0 1.25-29.55 12.85-29.55Q16.15-29.55 17.63-28.15 19.1-26.75 19.1-24.5L19.1-24.5 19.1-21.3Q19.1-19.2 18.07-17.68 17.05-16.15 14.7-15.9L14.7-15.9 14.7-15.8Q16.85-15.8 18.35-14.43 19.85-13.05 19.85-10.1L19.85-10.1 19.85-6.25Q19.85-2.7 17.88-1.35 15.9 0 12.4 0L12.4 0ZM9.55-2.3L11.75-2.25Q13.35-2.25 14.5-3.85 15.65-5.45 15.65-8.9L15.65-8.9 15.65-10.2Q15.65-12.1 14.85-13.65 14.05-15.2 12.05-15.2L12.05-15.2Q13.1-15.2 14.1-16.8L14.1-16.8Q15.05-18.35 15.05-21.9L15.05-21.9Q15.05-24.2 14.78-25.38 14.5-26.55 13.65-27 12.8-27.45 11.05-27.45L11.05-27.45 9.45-27.4 9.45-27.3 11.05-27.25Q12.7-27.25 13.48-26.83 14.25-26.4 14.45-25.25 14.65-24.1 14.65-21.9L14.65-21.9Q14.65-19.05 13.98-17.13 13.3-15.2 11.55-15.2L11.55-15.2 9.55-15.2 9.55-15.1 11.55-15.1Q13.85-15.1 14.53-13.75 15.2-12.4 15.2-10.2L15.2-10.2 15.2-8.9Q15.2-5.55 14.25-4 13.3-2.45 11.75-2.45L11.75-2.45 9.55-2.4 9.55-2.3ZM5.15-15.25L5.4-2.25 5.55-2.25 5.65-15.25 5.6-27.35 5.4-27.35 5.15-15.25ZM9.55-25.35L9.55-17.4 10.15-17.4Q10.7-17.4 10.95-18.55L10.95-18.55Q11.05-19.1 11.13-19.83 11.2-20.55 11.2-21.35L11.2-21.35Q11.2-22.2 11.18-22.93 11.15-23.65 11.1-24.2L11.1-24.2Q11-25.35 10.3-25.35L10.3-25.35 9.55-25.35ZM9.55-12.45L9.55-4.05 10.3-4.05Q10.85-4.05 11.05-5.3L11.05-5.3Q11.2-6.5 11.2-8.25L11.2-8.25Q11.2-9.1 11.18-9.85 11.15-10.6 11.1-11.25L11.1-11.25Q11.05-12.45 10.3-12.45L10.3-12.45 9.55-12.45ZM30.15 0L21.85 0 21.85-29.55 33.45-29.55Q36.75-29.55 38.22-28.15 39.7-26.75 39.7-24.5L39.7-24.5 39.7-20Q39.7-17.85 38.82-16.15 37.95-14.45 35.55-13.9L35.55-13.9Q36.75-13.8 37.45-13.15 38.15-12.5 38.8-10.75L38.8-10.75 41.55 0 32.7 0 30.15-13.1 30.15 0ZM31.35-14.6L31.35-14.5 32.45-14.5Q34-14.5 34.82-15.6 35.65-16.7 35.97-18.4 36.3-20.1 36.3-21.9L36.3-21.9Q36.3-25.1 35.4-26.33 34.5-27.55 32.15-27.45L32.15-27.45 30.55-27.4 30.55-27.3 32.15-27.25Q33.75-27.2 34.52-26.7 35.3-26.2 35.52-25.05 35.75-23.9 35.75-21.9L35.75-21.9Q35.75-20.45 35.55-18.78 35.35-17.1 34.65-15.93 33.95-14.75 32.45-14.65L32.45-14.65 31.35-14.6ZM25.7-15L25.9-2.35 26.1-2.35 26.35-15 26.15-27.35 25.95-27.35 25.7-15ZM30.15-25.35L30.15-16 30.75-16Q31.45-16 31.62-17.13 31.8-18.25 31.8-20.4L31.8-20.4Q31.8-21.8 31.77-22.75 31.75-23.7 31.7-24.25L31.7-24.25Q31.65-25.35 30.9-25.35L30.9-25.35 30.15-25.35ZM36.35-2.35L36.35-2.35 36.75-2.35Q36.55-3.1 36.2-4.65 35.85-6.2 35.4-7.98 34.95-9.75 34.35-11.2 33.75-12.65 32.95-13.25L32.95-13.25 32.9-13.25Q33.65-12.65 34.15-11.33 34.65-10 35-8.38 35.35-6.75 35.67-5.15 36-3.55 36.35-2.35ZM56.75 0L42.45 0 42.45-29.55 56.75-29.55 56.75-24 50.75-24 50.75-18.25 56.25-18.25 56.25-12 50.75-12 50.75-5.4 56.75-5.4 56.75 0ZM46.25-15L46.45-2.75 54.7-2.8 54.7-2.9 46.7-2.95 46.9-14.9 53.45-14.95 53.45-15.05 46.9-15.1 46.7-26.6 54.7-26.65 54.7-26.75 46.45-26.8 46.25-15ZM67.14 0L58.84 0 58.84-29.55 70.44-29.55Q73.74-29.55 75.22-28.15 76.69-26.75 76.69-24.5L76.69-24.5 76.69-20Q76.69-17.85 75.82-16.15 74.94-14.45 72.54-13.9L72.54-13.9Q73.74-13.8 74.44-13.15 75.14-12.5 75.79-10.75L75.79-10.75 78.54 0 69.69 0 67.14-13.1 67.14 0ZM68.34-14.6L68.34-14.5 69.44-14.5Q70.99-14.5 71.82-15.6 72.64-16.7 72.97-18.4 73.29-20.1 73.29-21.9L73.29-21.9Q73.29-25.1 72.39-26.33 71.49-27.55 69.14-27.45L69.14-27.45 67.54-27.4 67.54-27.3 69.14-27.25Q70.74-27.2 71.52-26.7 72.29-26.2 72.52-25.05 72.74-23.9 72.74-21.9L72.74-21.9Q72.74-20.45 72.54-18.78 72.34-17.1 71.64-15.93 70.94-14.75 69.44-14.65L69.44-14.65 68.34-14.6ZM62.69-15L62.89-2.35 63.09-2.35 63.34-15 63.14-27.35 62.94-27.35 62.69-15ZM67.14-25.35L67.14-16 67.74-16Q68.44-16 68.62-17.13 68.79-18.25 68.79-20.4L68.79-20.4Q68.79-21.8 68.77-22.75 68.74-23.7 68.69-24.25L68.69-24.25Q68.64-25.35 67.89-25.35L67.89-25.35 67.14-25.35ZM73.34-2.35L73.34-2.35 73.74-2.35Q73.54-3.1 73.19-4.65 72.84-6.2 72.39-7.98 71.94-9.75 71.34-11.2 70.74-12.65 69.94-13.25L69.94-13.25 69.89-13.25Q70.64-12.65 71.14-11.33 71.64-10 71.99-8.38 72.34-6.75 72.67-5.15 72.99-3.55 73.34-2.35ZM87.39 0L79.44 0 79.44-29.55 87.39-29.55 87.39 0ZM82.99-15L83.19-2.35 83.39-2.35 83.64-15 83.44-27.35 83.24-27.35 82.99-15Z" fill="#ffdc00" data-fill-palette-color="primary"></path><path d="M104.09 0L96.14 0 96.14-29.55 104.09-29.55 104.09 0ZM99.69-15L99.89-2.35 100.09-2.35 100.34-15 100.14-27.35 99.94-27.35 99.69-15ZM113.54 0L106.59 0 106.59-29.55 113.48-29.55 117.09-15.8 117.09-29.55 124.03-29.55 124.03 0 117.19 0 113.54-12.25 113.54 0ZM109.84-15L109.98-2.35 110.23-2.35 110.39-15 110.23-26.7 114.59-15.25 120.39-2.35 120.54-2.35 120.69-15 120.54-27.35 120.29-27.35 120.14-15 120.34-2.85 115.29-14.95 110.14-27.35 109.98-27.35 109.84-15ZM135.08 0.4L135.08 0.4Q131.98 0.4 129.96-0.38 127.93-1.15 126.96-3.08 125.98-5 125.98-8.45L125.98-8.45 125.98-9.4 134.33-9.4 134.33-7.2Q134.33-5.5 134.53-4.78 134.73-4.05 135.38-4.05L135.38-4.05Q135.98-4.05 136.18-4.55L136.18-4.55Q136.38-5 136.38-6.8L136.38-6.8Q136.38-8.45 135.83-9.35 135.28-10.25 134.11-10.88 132.93-11.5 131.03-12.3L131.03-12.3Q128.23-13.55 127.23-15.63 126.23-17.7 126.23-21.1L126.23-21.1Q126.23-24.3 127.11-26.18 127.98-28.05 129.98-28.85 131.98-29.65 135.38-29.65L135.38-29.65Q144.48-29.65 144.48-22.45L144.48-22.45 144.48-19.15 136.53-19.15 136.53-19.95Q136.53-20.95 136.51-21.75 136.48-22.55 136.43-23.05L136.43-23.05Q136.28-24.05 135.48-24.05L135.48-24.05Q134.83-24.05 134.66-23.25 134.48-22.45 134.48-21.35L134.48-21.35Q134.48-19.95 135.01-19.23 135.53-18.5 136.48-18.1 137.43-17.7 138.58-17.25L138.58-17.25Q140.93-16.4 142.28-15.48 143.63-14.55 144.23-12.98 144.83-11.4 144.83-8.55L144.83-8.55Q144.83-3.65 142.28-1.63 139.73 0.4 135.08 0.4ZM135.33-1.95L135.33-1.95Q135.88-1.95 136.56-2 137.23-2.05 137.63-2.15L137.63-2.15Q139.38-2.55 140.16-3.85 140.93-5.15 140.93-8L140.93-8Q140.93-10.4 140.01-11.83 139.08-13.25 137.08-13.95L137.08-13.95 135.53-14.5 134.08-15.2Q132.18-16.15 131.46-17.53 130.73-18.9 130.73-21.05L130.73-21.05Q130.73-23.6 131.36-24.88 131.98-26.15 133.68-26.5L133.68-26.5Q134.08-26.6 134.56-26.65 135.03-26.7 135.53-26.7L135.53-26.7Q136.43-26.7 137.08-26.55L137.08-26.55Q138.93-26.25 139.66-24.98 140.38-23.7 140.38-21.05L140.38-21.05 140.53-21.05Q140.68-23.9 139.91-25.15 139.13-26.4 137.08-26.7L137.08-26.7Q136.73-26.75 136.33-26.78 135.93-26.8 135.53-26.8L135.53-26.8Q134.43-26.8 133.68-26.65L133.68-26.65Q131.78-26.3 130.93-25.03 130.08-23.75 130.08-21.05L130.08-21.05Q130.08-16.6 133.98-15L133.98-15 135.48-14.4 136.98-13.75Q138.93-12.9 139.63-11.6 140.33-10.3 140.33-8L140.33-8Q140.33-5.3 139.76-3.98 139.18-2.65 137.58-2.3L137.58-2.3Q137.18-2.2 136.53-2.13 135.88-2.05 135.33-2.05L135.33-2.05Q134.93-2.05 134.31-2.1 133.68-2.15 133.33-2.25L133.33-2.25Q131.53-2.6 130.86-3.9 130.18-5.2 130.18-8.05L130.18-8.05 130.03-8.05Q129.88-5.05 130.61-3.73 131.33-2.4 133.28-2.1L133.28-2.1Q133.63-2.05 134.28-2 134.93-1.95 135.33-1.95ZM155.58 0.6L155.58 0.6Q152.63 0.6 150.66-0.03 148.68-0.65 147.73-2.55 146.78-4.45 146.78-8.15L146.78-8.15 146.78-29.55 154.73-29.55 154.73-5.75Q154.73-4.9 154.96-4.58 155.18-4.25 155.58-4.25L155.58-4.25Q155.98-4.25 156.21-4.58 156.43-4.9 156.43-5.75L156.43-5.75 156.43-29.55 164.38-29.55 164.38-8.2Q164.38-4.5 163.43-2.6 162.48-0.7 160.53-0.05 158.58 0.6 155.58 0.6ZM153.98-2.25L153.98-2.25 155.33-2.25Q155.63-2.25 155.78-2.3L155.78-2.3Q155.88-2.25 156.13-2.25L156.13-2.25 157.33-2.25Q160.53-2.25 160.63-5.7L160.63-5.7 160.93-15 160.63-27.35 160.43-27.35 160.23-15.05 160.43-5.7Q160.48-2.55 157.33-2.45L157.33-2.45 156.63-2.45Q156.43-2.4 156.13-2.4L156.13-2.4 155.33-2.4 154.73-2.45 153.98-2.45Q150.78-2.45 150.88-5.7L150.88-5.7 151.08-15.05 150.88-27.35 150.68-27.35 150.38-15 150.68-5.7Q150.78-2.25 153.98-2.25ZM175.18 0L166.88 0 166.88-29.55 178.48-29.55Q181.78-29.55 183.25-28.15 184.73-26.75 184.73-24.5L184.73-24.5 184.73-20Q184.73-17.85 183.85-16.15 182.98-14.45 180.58-13.9L180.58-13.9Q181.78-13.8 182.48-13.15 183.18-12.5 183.83-10.75L183.83-10.75 186.58 0 177.73 0 175.18-13.1 175.18 0ZM176.38-14.6L176.38-14.5 177.48-14.5Q179.03-14.5 179.85-15.6 180.68-16.7 181-18.4 181.33-20.1 181.33-21.9L181.33-21.9Q181.33-25.1 180.43-26.33 179.53-27.55 177.18-27.45L177.18-27.45 175.58-27.4 175.58-27.3 177.18-27.25Q178.78-27.2 179.55-26.7 180.33-26.2 180.55-25.05 180.78-23.9 180.78-21.9L180.78-21.9Q180.78-20.45 180.58-18.78 180.38-17.1 179.68-15.93 178.98-14.75 177.48-14.65L177.48-14.65 176.38-14.6ZM170.73-15L170.93-2.35 171.13-2.35 171.38-15 171.18-27.35 170.98-27.35 170.73-15ZM175.18-25.35L175.18-16 175.78-16Q176.48-16 176.65-17.13 176.83-18.25 176.83-20.4L176.83-20.4Q176.83-21.8 176.8-22.75 176.78-23.7 176.73-24.25L176.73-24.25Q176.68-25.35 175.93-25.35L175.93-25.35 175.18-25.35ZM181.38-2.35L181.38-2.35 181.78-2.35Q181.58-3.1 181.23-4.65 180.88-6.2 180.43-7.98 179.98-9.75 179.38-11.2 178.78-12.65 177.98-13.25L177.98-13.25 177.93-13.25Q178.68-12.65 179.18-11.33 179.68-10 180.03-8.38 180.38-6.75 180.7-5.15 181.03-3.55 181.38-2.35ZM195.03 0L186.38 0 190.63-29.55 202.38-29.55 206.53 0 197.58 0 197.18-4.3 195.33-4.3 195.03 0ZM191.88-15.05L190.48-2.35 190.68-2.35 190.83-3.4Q190.93-3.95 190.98-4.6L190.98-4.6 191.13-6.15 196.28-6.2 201.38-6.15 201.78-2.35 202.03-2.35 200.83-14.95 199.28-27.45 196.43-27.35 193.83-27.45 191.88-15.05ZM201.33-6.35L196.28-6.25 191.18-6.35 192.43-15 194.03-27.25 196.43-27.3 199.08-27.25 200.23-14.95 201.33-6.35ZM196.28-23.3L195.38-8.15 197.18-8.15 196.28-23.3ZM214.87 0L207.92 0 207.92-29.55 214.82-29.55 218.42-15.8 218.42-29.55 225.37-29.55 225.37 0 218.52 0 214.87-12.25 214.87 0ZM211.17-15L211.32-2.35 211.57-2.35 211.72-15 211.57-26.7 215.92-15.25 221.72-2.35 221.87-2.35 222.02-15 221.87-27.35 221.62-27.35 221.47-15 221.67-2.85 216.62-14.95 211.47-27.35 211.32-27.35 211.17-15ZM236.72 0.6L236.72 0.6Q233.72 0.6 231.7-0.15 229.67-0.9 228.65-2.93 227.62-4.95 227.62-8.65L227.62-8.65 227.62-23.25Q227.62-26.95 230.12-28.48 232.62-30 236.72-30L236.72-30Q240.82-30 243.15-28.48 245.47-26.95 245.47-23.25L245.47-23.25 245.47-16.35 237.52-16.35 237.52-23.65Q237.52-24.5 237.32-24.85L237.32-24.85Q237.12-25.15 236.72-25.15L236.72-25.15Q236.37-25.15 236.12-24.85L236.12-24.85Q235.92-24.5 235.92-23.65L235.92-23.65 235.92-5.5Q235.92-4.6 236.12-4.35L236.12-4.35Q236.32-4 236.72-4L236.72-4Q237.12-4 237.32-4.35L237.32-4.35Q237.52-4.6 237.52-5.5L237.52-5.5 237.52-12.4 245.47-12.4 245.47-8.7Q245.47-4.95 244.55-2.95 243.62-0.95 241.67-0.18 239.72 0.6 236.72 0.6ZM236.72-2.2L236.72-2.2Q237.32-2.2 237.85-2.23 238.37-2.25 238.82-2.4L238.82-2.4Q240.32-2.85 240.97-4.03 241.62-5.2 241.62-7.8L241.62-7.8 241.52-10.8 241.42-10.8 241.37-7.8Q241.37-5.4 240.77-4.23 240.17-3.05 238.72-2.6L238.72-2.6Q237.92-2.3 236.72-2.3L236.72-2.3Q235.52-2.3 234.62-2.6L234.62-2.6Q233.32-3 232.72-4.2 232.12-5.4 232.12-7.8L232.12-7.8 232.32-14.7 232.12-23.3Q232.12-24.8 232.72-25.75 233.32-26.7 234.77-27.05L234.77-27.05Q235.22-27.15 235.72-27.23 236.22-27.3 236.72-27.3L236.72-27.3Q237.77-27.3 238.52-27.1L238.52-27.1Q240.02-26.75 240.67-25.85 241.32-24.95 241.32-23.65L241.32-23.65 241.37-18.9 241.47-18.9 241.57-23.65Q241.57-25.05 240.87-25.98 240.17-26.9 238.57-27.3L238.57-27.3Q238.42-27.35 238.22-27.38 238.02-27.4 237.77-27.4L237.77-27.4 236.72-27.4Q236.17-27.4 235.65-27.38 235.12-27.35 234.77-27.25L234.77-27.25Q233.22-26.9 232.57-25.9 231.92-24.9 231.92-23.3L231.92-23.3 231.67-14.7 231.92-7.8Q231.92-5.25 232.57-4.03 233.22-2.8 234.52-2.4L234.52-2.4Q234.97-2.25 235.52-2.23 236.07-2.2 236.72-2.2ZM261.92 0L247.62 0 247.62-29.55 261.92-29.55 261.92-24 255.92-24 255.92-18.25 261.42-18.25 261.42-12 255.92-12 255.92-5.4 261.92-5.4 261.92 0ZM251.42-15L251.62-2.75 259.87-2.8 259.87-2.9 251.87-2.95 252.07-14.9 258.62-14.95 258.62-15.05 252.07-15.1 251.87-26.6 259.87-26.65 259.87-26.75 251.62-26.8 251.42-15Z" fill="#0074d9" data-fill-palette-color="secondary"></path></g></svg></g></svg></g><g transform="matrix(1,0,0,1,0,34.06238104812502)"><svg viewBox="0 0 176.47944191999997 18.955431017993615" height="18.955431017993615" width="176.47944191999997"><g transform="matrix(1,0,0,1,0,0)"><svg width="176.47944191999997" viewBox="0.95 -36.85 423.11 45.45" height="18.955431017993615" data-palette-color="#0074d9"><path d="M17.45 0L12.6 0 12.6-31.75 0.95-31.75 0.95-35.85 29-35.85 29-31.75 17.45-31.75 17.45 0ZM14.1 0L9 0 9-2.05Q9-2.5 9.2-2.78 9.4-3.05 9.8-3.1L9.8-3.1 13.55-3.9 14.1 0ZM21.05 0L15.95 0 16.5-3.9 20.25-3.1Q20.65-3.05 20.85-2.78 21.05-2.5 21.05-2.05L21.05-2.05 21.05 0ZM25.65-28L24.9-33 29-31.75 29-27.2 26.7-27.2Q26.3-27.2 26.03-27.38 25.75-27.55 25.65-28L25.65-28ZM0.95-31.75L5.05-33 4.3-28Q4.25-27.55 3.95-27.38 3.65-27.2 3.25-27.2L3.25-27.2 0.95-27.2 0.95-31.75ZM37.35 0.4L37.35 0.4Q35.35 0.4 33.75-0.38 32.15-1.15 31.2-2.65 30.25-4.15 30.25-6.35L30.25-6.35Q30.25-7.85 31.07-9.22 31.9-10.6 33.75-11.7L33.75-11.7Q35.6-12.75 38.57-13.45 41.55-14.15 45.85-14.25L45.85-14.25 45.85-16.2Q45.85-19.15 44.57-20.68 43.3-22.2 40.85-22.2L40.85-22.2Q39.55-22.2 38.12-21.53 36.7-20.85 35.5-20.18 34.3-19.5 33.6-19.5L33.6-19.5Q33.15-19.5 32.82-19.75 32.5-20 32.3-20.35L32.3-20.35 31.5-21.75Q33.6-23.8 36.02-24.8 38.45-25.8 41.4-25.8L41.4-25.8Q44.25-25.8 46.2-24.6 48.15-23.4 49.17-21.25 50.2-19.1 50.2-16.2L50.2-16.2 50.2 0 48.25 0Q47.6 0 47.2-0.2 46.8-0.4 46.65-1.05L46.65-1.05 46.15-3.4Q44.15-1.6 42.15-0.6 40.15 0.4 37.35 0.4ZM38.65-2.75L38.65-2.75Q40.9-2.75 42.6-3.65 44.3-4.55 45.85-6.15L45.85-6.15 45.85-11.4Q43.25-11.35 41.15-11.03 39.05-10.7 37.57-10.13 36.1-9.55 35.32-8.68 34.55-7.8 34.55-6.55L34.55-6.55Q34.55-4.55 35.72-3.65 36.9-2.75 38.65-2.75ZM53.8 0L48.7 0 49.25-3.9 53-3.1Q53.4-3.05 53.6-2.78 53.8-2.5 53.8-2.05L53.8-2.05 53.8 0ZM63.9 0L59.45 0 59.45-36.85 63.9-36.85 63.9-15.15 65.05-15.15Q65.55-15.15 65.9-15.3 66.25-15.45 66.6-15.85L66.6-15.85 74.6-24.45Q75-24.85 75.35-25.1 75.7-25.35 76.35-25.35L76.35-25.35 80.4-25.35 71.05-15.4Q70.7-15.05 70.37-14.7 70.05-14.35 69.6-14.1L69.6-14.1Q70.45-13.5 71.1-12.5L71.1-12.5 81 0 77 0Q76.45 0 76.1-0.23 75.75-0.45 75.35-0.9L75.35-0.9 67-11.25Q66.65-11.8 66.27-11.95 65.9-12.1 65.15-12.1L65.15-12.1 63.9-12.1 63.9 0ZM75.95-21.45L75.25-21.3 74.2-22.95 74.2-25.35 80-25.35 75.95-21.45ZM77.55-3.9L77 0 74.6-4.55 77.55-3.9ZM60.95 0L55.85 0 55.85-2.05Q55.85-2.5 56.05-2.78 56.25-3.05 56.65-3.1L56.65-3.1 60.4-3.9 60.95 0ZM67.5 0L62.4 0 62.95-3.9 66.7-3.1Q67.1-3.05 67.3-2.78 67.5-2.5 67.5-2.05L67.5-2.05 67.5 0ZM55.85-36.85L60.95-36.85 60.4-32.95 56.65-33.75Q56.25-33.85 56.05-34.1 55.85-34.35 55.85-34.8L55.85-34.8 55.85-36.85ZM75.4-25.35L80.5-25.35 80.5-23.3Q80.5-22.85 80.3-22.6 80.1-22.35 79.7-22.25L79.7-22.25 75.95-21.45 75.4-25.35ZM70.25-25.35L75.35-25.35 74.8-21.45 71.05-22.25Q70.65-22.35 70.45-22.6 70.25-22.85 70.25-23.3L70.25-23.3 70.25-25.35ZM82.1 0L77 0 77.55-3.9 81.3-3.1Q81.7-3.05 81.9-2.78 82.1-2.5 82.1-2.05L82.1-2.05 82.1 0ZM95.89 0.35L95.89 0.35Q92.24 0.35 89.52-1.3 86.79-2.95 85.29-6 83.79-9.05 83.79-13.2L83.79-13.2Q83.79-16.75 85.24-19.6 86.69-22.45 89.37-24.1 92.04-25.75 95.64-25.75L95.64-25.75Q98.79-25.75 101.14-24.35 103.49-22.95 104.82-20.43 106.14-17.9 106.14-14.4L106.14-14.4Q106.14-13.35 105.92-13 105.69-12.65 105.04-12.65L105.04-12.65 88.19-12.65Q88.19-12.5 88.19-12.33 88.19-12.15 88.19-12L88.19-12Q88.44-7.8 90.54-5.48 92.64-3.15 96.24-3.15L96.24-3.15Q97.79-3.15 99.32-3.78 100.84-4.4 102.02-5 103.19-5.6 103.69-5.6L103.69-5.6Q104.24-5.6 104.54-5.2L104.54-5.2 105.79-3.55Q104.79-2.25 103.12-1.38 101.44-0.5 99.54-0.08 97.64 0.35 95.89 0.35ZM88.34-15.45L88.34-15.45 102.14-15.45Q102.14-18.55 100.44-20.5 98.74-22.45 95.74-22.45L95.74-22.45Q92.49-22.45 90.64-20.6 88.79-18.75 88.34-15.45ZM129.74 0.4L129.74 0.4Q127.74 0.4 126.14-0.38 124.54-1.15 123.59-2.65 122.64-4.15 122.64-6.35L122.64-6.35Q122.64-7.85 123.46-9.22 124.29-10.6 126.14-11.7L126.14-11.7Q127.99-12.75 130.96-13.45 133.94-14.15 138.24-14.25L138.24-14.25 138.24-16.2Q138.24-19.15 136.96-20.68 135.69-22.2 133.24-22.2L133.24-22.2Q131.94-22.2 130.51-21.53 129.09-20.85 127.89-20.18 126.69-19.5 125.99-19.5L125.99-19.5Q125.54-19.5 125.21-19.75 124.89-20 124.69-20.35L124.69-20.35 123.89-21.75Q125.99-23.8 128.41-24.8 130.84-25.8 133.79-25.8L133.79-25.8Q136.64-25.8 138.59-24.6 140.54-23.4 141.56-21.25 142.59-19.1 142.59-16.2L142.59-16.2 142.59 0 140.64 0Q139.99 0 139.59-0.2 139.19-0.4 139.04-1.05L139.04-1.05 138.54-3.4Q136.54-1.6 134.54-0.6 132.54 0.4 129.74 0.4ZM131.04-2.75L131.04-2.75Q133.29-2.75 134.99-3.65 136.69-4.55 138.24-6.15L138.24-6.15 138.24-11.4Q135.64-11.35 133.54-11.03 131.44-10.7 129.96-10.13 128.49-9.55 127.71-8.68 126.94-7.8 126.94-6.55L126.94-6.55Q126.94-4.55 128.11-3.65 129.29-2.75 131.04-2.75ZM146.19 0L141.09 0 141.64-3.9 145.39-3.1Q145.79-3.05 145.99-2.78 146.19-2.5 146.19-2.05L146.19-2.05 146.19 0ZM172.58 0.4L172.58 0.4Q170.68 0.4 168.71 0.08 166.73-0.25 165.06-0.7 163.38-1.15 162.38-1.5L162.38-1.5 162.38-5.95 166.23-5Q168.28-4.25 169.71-3.95 171.13-3.65 172.98-3.65L172.98-3.65Q175.23-3.65 176.86-4.45 178.48-5.25 179.38-6.7 180.28-8.15 180.28-10L180.28-10Q180.28-11.75 179.53-12.85 178.78-13.95 177.53-14.63 176.28-15.3 174.76-15.78 173.23-16.25 171.63-16.8L171.63-16.8Q169.58-17.5 167.61-18.55 165.63-19.6 164.38-21.38 163.13-23.15 163.13-26.1L163.13-26.1Q163.13-29.05 164.51-31.35 165.88-33.65 168.38-34.95 170.88-36.25 174.28-36.25L174.28-36.25Q176.43-36.25 179.06-35.73 181.68-35.2 184.03-34.2L184.03-34.2 184.03-30.5 180.23-31.25Q178.63-31.7 177.06-31.95 175.48-32.2 174.28-32.2L174.28-32.2Q171.23-32.2 169.43-30.68 167.63-29.15 167.63-26.75L167.63-26.75Q167.63-24.65 168.91-23.5 170.18-22.35 172.16-21.65 174.13-20.95 176.23-20.2L176.23-20.2Q178.58-19.4 180.53-18.3 182.48-17.2 183.66-15.43 184.83-13.65 184.83-10.7L184.83-10.7Q184.83-7.55 183.36-5.03 181.88-2.5 179.16-1.05 176.43 0.4 172.58 0.4ZM180.68-26.75L179.93-31.75 184.03-30.5 184.03-25.95 181.73-25.95Q181.33-25.95 181.06-26.13 180.78-26.3 180.68-26.75L180.68-26.75ZM165.73-9.7L166.48-4.7 162.38-5.95 162.38-10.5 164.68-10.5Q165.08-10.5 165.38-10.33 165.68-10.15 165.73-9.7L165.73-9.7ZM200.88 0.35L200.88 0.35Q197.23 0.35 194.51-1.3 191.78-2.95 190.28-6 188.78-9.05 188.78-13.2L188.78-13.2Q188.78-16.75 190.23-19.6 191.68-22.45 194.36-24.1 197.03-25.75 200.63-25.75L200.63-25.75Q203.78-25.75 206.13-24.35 208.48-22.95 209.81-20.43 211.13-17.9 211.13-14.4L211.13-14.4Q211.13-13.35 210.91-13 210.68-12.65 210.03-12.65L210.03-12.65 193.18-12.65Q193.18-12.5 193.18-12.33 193.18-12.15 193.18-12L193.18-12Q193.43-7.8 195.53-5.48 197.63-3.15 201.23-3.15L201.23-3.15Q202.78-3.15 204.31-3.78 205.83-4.4 207.01-5 208.18-5.6 208.68-5.6L208.68-5.6Q209.23-5.6 209.53-5.2L209.53-5.2 210.78-3.55Q209.78-2.25 208.11-1.38 206.43-0.5 204.53-0.08 202.63 0.35 200.88 0.35ZM193.33-15.45L193.33-15.45 207.13-15.45Q207.13-18.55 205.43-20.5 203.73-22.45 200.73-22.45L200.73-22.45Q197.48-22.45 195.63-20.6 193.78-18.75 193.33-15.45ZM225.73 0.35L225.73 0.35Q222.43 0.35 219.9-1.28 217.38-2.9 215.95-5.85 214.53-8.8 214.53-12.7L214.53-12.7Q214.53-16.5 215.88-19.45 217.23-22.4 219.88-24.08 222.53-25.75 226.48-25.75L226.48-25.75Q228.03-25.75 230.08-25.23 232.13-24.7 233.98-23.95L233.98-23.95 233.98-21.25 231.38-21.4Q230.38-21.75 229.25-22 228.13-22.25 226.73-22.25L226.73-22.25Q224.18-22.25 222.5-21.08 220.83-19.9 219.98-17.75 219.13-15.6 219.13-12.7L219.13-12.7Q219.13-8.35 221.03-5.73 222.93-3.1 226.48-3.1L226.48-3.1Q228.43-3.1 229.68-3.73 230.93-4.35 231.73-4.98 232.53-5.6 232.98-5.6L232.98-5.6Q233.23-5.6 233.45-5.5 233.68-5.4 233.83-5.2L233.83-5.2 235.08-3.55Q233.43-1.55 230.98-0.6 228.53 0.35 225.73 0.35ZM231.28-18.15L230.78-21.9 233.98-21.25 233.98-17.35 232.33-17.35Q231.83-17.35 231.58-17.57 231.33-17.8 231.28-18.15L231.28-18.15ZM248.88 0.4L248.88 0.4Q246.13 0.4 244.23-0.83 242.33-2.05 241.35-4.2 240.38-6.35 240.38-9.2L240.38-9.2 240.38-25.35 244.83-25.35 244.83-9.2Q244.83-6.3 246.15-4.73 247.48-3.15 250.18-3.15L250.18-3.15Q252.13-3.15 253.85-4.08 255.58-5 257.03-6.65L257.03-6.65 257.03-25.35 261.48-25.35 261.48 0 258.83 0Q257.83 0 257.63-0.95L257.63-0.95 257.28-3.65Q255.63-1.85 253.58-0.73 251.53 0.4 248.88 0.4ZM265.08 0L259.98 0 260.53-3.9 264.28-3.1Q264.68-3.05 264.88-2.78 265.08-2.5 265.08-2.05L265.08-2.05 265.08 0ZM236.78-25.35L241.88-25.35 241.33-21.45 237.58-22.25Q237.18-22.35 236.98-22.6 236.78-22.85 236.78-23.3L236.78-23.3 236.78-25.35ZM253.43-25.35L258.53-25.35 257.98-21.45 254.23-22.25Q253.83-22.35 253.63-22.6 253.43-22.85 253.43-23.3L253.43-23.3 253.43-25.35ZM275.17 0L270.72 0 270.72-25.35 273.27-25.35Q274.02-25.35 274.32-25.08 274.62-24.8 274.67-24.1L274.67-24.1 274.97-20.15Q276.27-22.8 278.17-24.3 280.07-25.8 282.67-25.8L282.67-25.8Q283.72-25.8 284.57-25.55 285.42-25.3 286.12-24.9L286.12-24.9 285.57-21.55Q285.52-21.25 285.3-21.1 285.07-20.95 284.77-20.95L284.77-20.95Q284.42-20.95 283.42-21.18 282.42-21.4 281.67-21.4L281.67-21.4Q279.37-21.4 277.8-20.05 276.22-18.7 275.17-16.15L275.17-16.15 275.17 0ZM278.77 0L273.67 0 274.22-3.9 277.97-3.1Q278.37-3.05 278.57-2.78 278.77-2.5 278.77-2.05L278.77-2.05 278.77 0ZM272.22 0L267.12 0 267.12-2.05Q267.12-2.5 267.32-2.78 267.52-3.05 267.92-3.1L267.92-3.1 271.67-3.9 272.22 0ZM267.12-25.35L272.22-25.35 271.67-21.45 267.92-22.25Q267.52-22.35 267.32-22.6 267.12-22.85 267.12-23.3L267.12-23.3 267.12-25.35ZM300.62 0.35L300.62 0.35Q296.97 0.35 294.25-1.3 291.52-2.95 290.02-6 288.52-9.05 288.52-13.2L288.52-13.2Q288.52-16.75 289.97-19.6 291.42-22.45 294.1-24.1 296.77-25.75 300.37-25.75L300.37-25.75Q303.52-25.75 305.87-24.35 308.22-22.95 309.55-20.43 310.87-17.9 310.87-14.4L310.87-14.4Q310.87-13.35 310.65-13 310.42-12.65 309.77-12.65L309.77-12.65 292.92-12.65Q292.92-12.5 292.92-12.33 292.92-12.15 292.92-12L292.92-12Q293.17-7.8 295.27-5.48 297.37-3.15 300.97-3.15L300.97-3.15Q302.52-3.15 304.05-3.78 305.57-4.4 306.75-5 307.92-5.6 308.42-5.6L308.42-5.6Q308.97-5.6 309.27-5.2L309.27-5.2 310.52-3.55Q309.52-2.25 307.85-1.38 306.17-0.5 304.27-0.08 302.37 0.35 300.62 0.35ZM293.07-15.45L293.07-15.45 306.87-15.45Q306.87-18.55 305.17-20.5 303.47-22.45 300.47-22.45L300.47-22.45Q297.22-22.45 295.37-20.6 293.52-18.75 293.07-15.45ZM338.32 0.4L338.32 0.4Q336.42 0.4 334.44 0.08 332.47-0.25 330.79-0.7 329.12-1.15 328.12-1.5L328.12-1.5 328.12-5.95 331.97-5Q334.02-4.25 335.44-3.95 336.87-3.65 338.72-3.65L338.72-3.65Q340.97-3.65 342.59-4.45 344.22-5.25 345.12-6.7 346.02-8.15 346.02-10L346.02-10Q346.02-11.75 345.27-12.85 344.52-13.95 343.27-14.63 342.02-15.3 340.49-15.78 338.97-16.25 337.37-16.8L337.37-16.8Q335.32-17.5 333.34-18.55 331.37-19.6 330.12-21.38 328.87-23.15 328.87-26.1L328.87-26.1Q328.87-29.05 330.24-31.35 331.62-33.65 334.12-34.95 336.62-36.25 340.02-36.25L340.02-36.25Q342.17-36.25 344.79-35.73 347.42-35.2 349.77-34.2L349.77-34.2 349.77-30.5 345.97-31.25Q344.37-31.7 342.79-31.95 341.22-32.2 340.02-32.2L340.02-32.2Q336.97-32.2 335.17-30.68 333.37-29.15 333.37-26.75L333.37-26.75Q333.37-24.65 334.64-23.5 335.92-22.35 337.89-21.65 339.87-20.95 341.97-20.2L341.97-20.2Q344.32-19.4 346.27-18.3 348.22-17.2 349.39-15.43 350.57-13.65 350.57-10.7L350.57-10.7Q350.57-7.55 349.09-5.03 347.62-2.5 344.89-1.05 342.17 0.4 338.32 0.4ZM346.42-26.75L345.67-31.75 349.77-30.5 349.77-25.95 347.47-25.95Q347.07-25.95 346.79-26.13 346.52-26.3 346.42-26.75L346.42-26.75ZM331.47-9.7L332.22-4.7 328.12-5.95 328.12-10.5 330.42-10.5Q330.82-10.5 331.12-10.33 331.42-10.15 331.47-9.7L331.47-9.7ZM363.71 0.4L363.71 0.4Q360.71 0.4 359.09-1.28 357.46-2.95 357.46-6.1L357.46-6.1 357.46-21.6 354.41-21.6Q354.01-21.6 353.74-21.85 353.46-22.1 353.46-22.6L353.46-22.6 353.46-24.35 357.61-24.9 358.66-32.7Q358.76-33.55 359.66-33.55L359.66-33.55 361.91-33.55 361.91-24.85 369.16-24.85 369.16-21.6 361.91-21.6 361.91-6.4Q361.91-4.8 362.69-4.03 363.46-3.25 364.71-3.25L364.71-3.25Q365.26-3.25 365.91-3.55 366.56-3.85 367.11-4.15 367.66-4.45 367.91-4.45L367.91-4.45Q368.26-4.45 368.51-4.05L368.51-4.05 369.81-1.9Q368.66-0.85 367.04-0.23 365.41 0.4 363.71 0.4ZM384.76 0.35L384.76 0.35Q381.11 0.35 378.39-1.3 375.66-2.95 374.16-6 372.66-9.05 372.66-13.2L372.66-13.2Q372.66-16.75 374.11-19.6 375.56-22.45 378.24-24.1 380.91-25.75 384.51-25.75L384.51-25.75Q387.66-25.75 390.01-24.35 392.36-22.95 393.69-20.43 395.01-17.9 395.01-14.4L395.01-14.4Q395.01-13.35 394.79-13 394.56-12.65 393.91-12.65L393.91-12.65 377.06-12.65Q377.06-12.5 377.06-12.33 377.06-12.15 377.06-12L377.06-12Q377.31-7.8 379.41-5.48 381.51-3.15 385.11-3.15L385.11-3.15Q386.66-3.15 388.19-3.78 389.71-4.4 390.89-5 392.06-5.6 392.56-5.6L392.56-5.6Q393.11-5.6 393.41-5.2L393.41-5.2 394.66-3.55Q393.66-2.25 391.99-1.38 390.31-0.5 388.41-0.08 386.51 0.35 384.76 0.35ZM377.21-15.45L377.21-15.45 391.01-15.45Q391.01-18.55 389.31-20.5 387.61-22.45 384.61-22.45L384.61-22.45Q381.36-22.45 379.51-20.6 377.66-18.75 377.21-15.45ZM406.16 8.6L401.71 8.6 401.71-25.35 404.36-25.35Q405.36-25.35 405.56-24.4L405.56-24.4 405.96-21.4Q407.56-23.4 409.66-24.6 411.76-25.8 414.46-25.8L414.46-25.8Q417.56-25.8 419.71-24.2 421.86-22.6 422.96-19.7 424.06-16.8 424.06-12.85L424.06-12.85Q424.06-9.2 422.76-6.2 421.46-3.2 419.01-1.43 416.56 0.35 413.11 0.35L413.11 0.35Q410.76 0.35 409.11-0.43 407.46-1.2 406.16-2.65L406.16-2.65 406.16 8.6ZM412.11-3.1L412.11-3.1Q414.51-3.1 416.13-4.23 417.76-5.35 418.61-7.55 419.46-9.75 419.46-12.85L419.46-12.85Q419.46-17.45 417.86-19.83 416.26-22.2 413.01-22.2L413.01-22.2Q410.81-22.2 409.18-21.2 407.56-20.2 406.16-18.35L406.16-18.35 406.16-6.1Q407.41-4.45 408.86-3.78 410.31-3.1 412.11-3.1ZM398.11-25.35L403.21-25.35 402.66-21.45 398.91-22.25Q398.51-22.35 398.31-22.6 398.11-22.85 398.11-23.3L398.11-23.3 398.11-25.35ZM403.21 8.6L398.11 8.6 398.11 6.55Q398.11 6.1 398.31 5.83 398.51 5.55 398.91 5.5L398.91 5.5 402.66 4.7 403.21 8.6ZM409.76 8.6L404.66 8.6 405.21 4.7 408.96 5.5Q409.36 5.55 409.56 5.83 409.76 6.1 409.76 6.55L409.76 6.55 409.76 8.6Z" opacity="1" transform="matrix(1,0,0,1,0,0)" fill="#0074d9" class="slogan-text-1" data-fill-palette-color="secondary" id="text-1"></path></svg></g></svg></g></svg></g></svg></g><g><svg viewBox="0 0 130.4848509657691 130.4848509657691" height="130.4848509657691" width="130.4848509657691"><g><svg></svg></g><g id="icon-0"><svg viewBox="0 0 130.4848509657691 130.4848509657691" height="130.4848509657691" width="130.4848509657691"><g></g><g transform="matrix(1,0,0,1,28.37011789296934,26.207027090772925)"><svg viewBox="0 0 73.74461517983043 78.07079678422326" height="78.07079678422326" width="73.74461517983043"><g><svg xmlns="http://www.w3.org/2000/svg" xml:space="preserve" viewBox="5.996 4.588 48.00860527751525 50.824999999999996" x="0" y="0" height="78.07079678422326" width="73.74461517983043" class="icon-dxe-0" data-fill-palette-color="accent" id="dxe-0"></svg></g></svg></g></svg></g></svg></g></svg></g></svg></g><g><path d="M0 123.6c0-68.262 55.338-123.6 123.6-123.6 53.081 0 98.348 33.461 115.856 80.441l-0.836 0c-17.471-46.539-62.378-79.659-115.02-79.658-67.83 0-122.817 54.987-122.817 122.817 0 67.83 54.987 122.817 122.817 122.817 52.642 0 97.549-33.12 115.02-79.658h0.836c-17.508 46.98-62.774 80.441-115.856 80.441-68.262 0-123.6-55.338-123.6-123.6z" fill="#0074d9" stroke="transparent" data-fill-palette-color="tertiary"></path></g></svg></g><defs></defs><mask id="712546c5-dd7d-4afb-83d1-1b867dfc2c23"><g id="SvgjsG2696"><svg viewBox="0 0 395.52 247.2" height="247.2" width="395.52"><g><svg></svg></g><g><svg viewBox="0 0 395.52 247.2" height="247.2" width="395.52"><g transform="matrix(1,0,0,1,75.54432,82.4910158252292)"><svg viewBox="0 0 244.43135999999998 82.21796834954158" height="82.21796834954158" width="244.43135999999998"><g><svg viewBox="0 0 387.9272404952109 130.4848509657691" height="82.21796834954158" width="244.43135999999998"><g transform="matrix(1,0,0,1,143.49588049521094,38.73351944982524)"><svg viewBox="0 0 244.43135999999998 53.01781206611864" height="53.01781206611864" width="244.43135999999998"><g id="SvgjsG2695"><svg viewBox="0 0 244.43135999999998 53.01781206611864" height="53.01781206611864" width="244.43135999999998" id="SvgjsSvg2694"><g><svg viewBox="0 0 244.43135999999998 27.55686628340411" height="27.55686628340411" width="244.43135999999998"><g transform="matrix(1,0,0,1,0,0)"><svg width="244.43135999999998" viewBox="1.25 -30 270.144171510247 30.6" height="27.55686628340411" data-palette-color="#ffdc00"><g transform="matrix(1,0,0,1,0,0)"><g><svg width="5.549841510247009" viewBox="3.16 -36.36 40.730000000000004 36.36" height="4.954697215774139" data-palette-color="#ffdc00" id="SvgjsSvg2693" x="264.6949207551235" y="-28.55301860788707"><path d="M18.7 0L3.16 0 3.16-36.36 17.72-36.36Q21.73-36.36 24.41-35.17 27.1-33.98 28.44-31.88 29.79-29.78 29.79-27.04L29.79-27.04Q29.79-24.91 28.94-23.3 28.09-21.7 26.61-20.68 25.12-19.66 23.22-19.23L23.22-19.23 23.22-18.87Q25.3-18.79 27.12-17.7 28.94-16.62 30.08-14.68 31.21-12.73 31.21-10.05L31.21-10.05Q31.21-7.16 29.79-4.89 28.36-2.63 25.57-1.31 22.78 0 18.7 0L18.7 0ZM10.85-15.94L10.85-6.29 17.12-6.29Q20.33-6.29 21.8-7.52 23.28-8.75 23.28-10.81L23.28-10.81Q23.28-12.32 22.55-13.48 21.82-14.63 20.48-15.29 19.14-15.94 17.29-15.94L17.29-15.94 10.85-15.94ZM10.85-30.15L10.85-21.15 16.55-21.15Q18.13-21.15 19.36-21.71 20.6-22.27 21.32-23.3 22.03-24.33 22.03-25.76L22.03-25.76Q22.03-27.73 20.64-28.94 19.25-30.15 16.69-30.15L16.69-30.15 10.85-30.15ZM36.2-36.36L43.89-36.36 43.89 0 36.2 0 36.2-36.36Z" opacity="1" transform="matrix(1,0,0,1,0,0)" fill="black" class="undefined-123" id="SvgjsPath2692"></path></svg></g></g><path d="M263.546-26.076C263.546-28.243 265.302-30 267.47-30 269.637-30 271.394-28.243 271.394-26.076 271.394-23.908 269.637-22.151 267.47-22.151 265.302-22.151 263.546-23.908 263.546-26.076ZM267.47-22.551C269.416-22.551 270.994-24.129 270.994-26.076 270.994-28.022 269.416-29.6 267.47-29.6 265.523-29.6 263.946-28.022 263.946-26.076 263.946-24.129 265.523-22.551 267.47-22.551Z" fill="black" id="SvgjsPath2691"></path><g class="wordmark-text-0" data-fill-palette-color="primary" id="SvgjsG2690"><path d="M12.4 0L1.25 0 1.25-29.55 12.85-29.55Q16.15-29.55 17.63-28.15 19.1-26.75 19.1-24.5L19.1-24.5 19.1-21.3Q19.1-19.2 18.07-17.68 17.05-16.15 14.7-15.9L14.7-15.9 14.7-15.8Q16.85-15.8 18.35-14.43 19.85-13.05 19.85-10.1L19.85-10.1 19.85-6.25Q19.85-2.7 17.88-1.35 15.9 0 12.4 0L12.4 0ZM9.55-2.3L11.75-2.25Q13.35-2.25 14.5-3.85 15.65-5.45 15.65-8.9L15.65-8.9 15.65-10.2Q15.65-12.1 14.85-13.65 14.05-15.2 12.05-15.2L12.05-15.2Q13.1-15.2 14.1-16.8L14.1-16.8Q15.05-18.35 15.05-21.9L15.05-21.9Q15.05-24.2 14.78-25.38 14.5-26.55 13.65-27 12.8-27.45 11.05-27.45L11.05-27.45 9.45-27.4 9.45-27.3 11.05-27.25Q12.7-27.25 13.48-26.83 14.25-26.4 14.45-25.25 14.65-24.1 14.65-21.9L14.65-21.9Q14.65-19.05 13.98-17.13 13.3-15.2 11.55-15.2L11.55-15.2 9.55-15.2 9.55-15.1 11.55-15.1Q13.85-15.1 14.53-13.75 15.2-12.4 15.2-10.2L15.2-10.2 15.2-8.9Q15.2-5.55 14.25-4 13.3-2.45 11.75-2.45L11.75-2.45 9.55-2.4 9.55-2.3ZM5.15-15.25L5.4-2.25 5.55-2.25 5.65-15.25 5.6-27.35 5.4-27.35 5.15-15.25ZM9.55-25.35L9.55-17.4 10.15-17.4Q10.7-17.4 10.95-18.55L10.95-18.55Q11.05-19.1 11.13-19.83 11.2-20.55 11.2-21.35L11.2-21.35Q11.2-22.2 11.18-22.93 11.15-23.65 11.1-24.2L11.1-24.2Q11-25.35 10.3-25.35L10.3-25.35 9.55-25.35ZM9.55-12.45L9.55-4.05 10.3-4.05Q10.85-4.05 11.05-5.3L11.05-5.3Q11.2-6.5 11.2-8.25L11.2-8.25Q11.2-9.1 11.18-9.85 11.15-10.6 11.1-11.25L11.1-11.25Q11.05-12.45 10.3-12.45L10.3-12.45 9.55-12.45ZM30.15 0L21.85 0 21.85-29.55 33.45-29.55Q36.75-29.55 38.22-28.15 39.7-26.75 39.7-24.5L39.7-24.5 39.7-20Q39.7-17.85 38.82-16.15 37.95-14.45 35.55-13.9L35.55-13.9Q36.75-13.8 37.45-13.15 38.15-12.5 38.8-10.75L38.8-10.75 41.55 0 32.7 0 30.15-13.1 30.15 0ZM31.35-14.6L31.35-14.5 32.45-14.5Q34-14.5 34.82-15.6 35.65-16.7 35.97-18.4 36.3-20.1 36.3-21.9L36.3-21.9Q36.3-25.1 35.4-26.33 34.5-27.55 32.15-27.45L32.15-27.45 30.55-27.4 30.55-27.3 32.15-27.25Q33.75-27.2 34.52-26.7 35.3-26.2 35.52-25.05 35.75-23.9 35.75-21.9L35.75-21.9Q35.75-20.45 35.55-18.78 35.35-17.1 34.65-15.93 33.95-14.75 32.45-14.65L32.45-14.65 31.35-14.6ZM25.7-15L25.9-2.35 26.1-2.35 26.35-15 26.15-27.35 25.95-27.35 25.7-15ZM30.15-25.35L30.15-16 30.75-16Q31.45-16 31.62-17.13 31.8-18.25 31.8-20.4L31.8-20.4Q31.8-21.8 31.77-22.75 31.75-23.7 31.7-24.25L31.7-24.25Q31.65-25.35 30.9-25.35L30.9-25.35 30.15-25.35ZM36.35-2.35L36.35-2.35 36.75-2.35Q36.55-3.1 36.2-4.65 35.85-6.2 35.4-7.98 34.95-9.75 34.35-11.2 33.75-12.65 32.95-13.25L32.95-13.25 32.9-13.25Q33.65-12.65 34.15-11.33 34.65-10 35-8.38 35.35-6.75 35.67-5.15 36-3.55 36.35-2.35ZM56.75 0L42.45 0 42.45-29.55 56.75-29.55 56.75-24 50.75-24 50.75-18.25 56.25-18.25 56.25-12 50.75-12 50.75-5.4 56.75-5.4 56.75 0ZM46.25-15L46.45-2.75 54.7-2.8 54.7-2.9 46.7-2.95 46.9-14.9 53.45-14.95 53.45-15.05 46.9-15.1 46.7-26.6 54.7-26.65 54.7-26.75 46.45-26.8 46.25-15ZM67.14 0L58.84 0 58.84-29.55 70.44-29.55Q73.74-29.55 75.22-28.15 76.69-26.75 76.69-24.5L76.69-24.5 76.69-20Q76.69-17.85 75.82-16.15 74.94-14.45 72.54-13.9L72.54-13.9Q73.74-13.8 74.44-13.15 75.14-12.5 75.79-10.75L75.79-10.75 78.54 0 69.69 0 67.14-13.1 67.14 0ZM68.34-14.6L68.34-14.5 69.44-14.5Q70.99-14.5 71.82-15.6 72.64-16.7 72.97-18.4 73.29-20.1 73.29-21.9L73.29-21.9Q73.29-25.1 72.39-26.33 71.49-27.55 69.14-27.45L69.14-27.45 67.54-27.4 67.54-27.3 69.14-27.25Q70.74-27.2 71.52-26.7 72.29-26.2 72.52-25.05 72.74-23.9 72.74-21.9L72.74-21.9Q72.74-20.45 72.54-18.78 72.34-17.1 71.64-15.93 70.94-14.75 69.44-14.65L69.44-14.65 68.34-14.6ZM62.69-15L62.89-2.35 63.09-2.35 63.34-15 63.14-27.35 62.94-27.35 62.69-15ZM67.14-25.35L67.14-16 67.74-16Q68.44-16 68.62-17.13 68.79-18.25 68.79-20.4L68.79-20.4Q68.79-21.8 68.77-22.75 68.74-23.7 68.69-24.25L68.69-24.25Q68.64-25.35 67.89-25.35L67.89-25.35 67.14-25.35ZM73.34-2.35L73.34-2.35 73.74-2.35Q73.54-3.1 73.19-4.65 72.84-6.2 72.39-7.98 71.94-9.75 71.34-11.2 70.74-12.65 69.94-13.25L69.94-13.25 69.89-13.25Q70.64-12.65 71.14-11.33 71.64-10 71.99-8.38 72.34-6.75 72.67-5.15 72.99-3.55 73.34-2.35ZM87.39 0L79.44 0 79.44-29.55 87.39-29.55 87.39 0ZM82.99-15L83.19-2.35 83.39-2.35 83.64-15 83.44-27.35 83.24-27.35 82.99-15Z" fill="black"></path><path d="M104.09 0L96.14 0 96.14-29.55 104.09-29.55 104.09 0ZM99.69-15L99.89-2.35 100.09-2.35 100.34-15 100.14-27.35 99.94-27.35 99.69-15ZM113.54 0L106.59 0 106.59-29.55 113.48-29.55 117.09-15.8 117.09-29.55 124.03-29.55 124.03 0 117.19 0 113.54-12.25 113.54 0ZM109.84-15L109.98-2.35 110.23-2.35 110.39-15 110.23-26.7 114.59-15.25 120.39-2.35 120.54-2.35 120.69-15 120.54-27.35 120.29-27.35 120.14-15 120.34-2.85 115.29-14.95 110.14-27.35 109.98-27.35 109.84-15ZM135.08 0.4L135.08 0.4Q131.98 0.4 129.96-0.38 127.93-1.15 126.96-3.08 125.98-5 125.98-8.45L125.98-8.45 125.98-9.4 134.33-9.4 134.33-7.2Q134.33-5.5 134.53-4.78 134.73-4.05 135.38-4.05L135.38-4.05Q135.98-4.05 136.18-4.55L136.18-4.55Q136.38-5 136.38-6.8L136.38-6.8Q136.38-8.45 135.83-9.35 135.28-10.25 134.11-10.88 132.93-11.5 131.03-12.3L131.03-12.3Q128.23-13.55 127.23-15.63 126.23-17.7 126.23-21.1L126.23-21.1Q126.23-24.3 127.11-26.18 127.98-28.05 129.98-28.85 131.98-29.65 135.38-29.65L135.38-29.65Q144.48-29.65 144.48-22.45L144.48-22.45 144.48-19.15 136.53-19.15 136.53-19.95Q136.53-20.95 136.51-21.75 136.48-22.55 136.43-23.05L136.43-23.05Q136.28-24.05 135.48-24.05L135.48-24.05Q134.83-24.05 134.66-23.25 134.48-22.45 134.48-21.35L134.48-21.35Q134.48-19.95 135.01-19.23 135.53-18.5 136.48-18.1 137.43-17.7 138.58-17.25L138.58-17.25Q140.93-16.4 142.28-15.48 143.63-14.55 144.23-12.98 144.83-11.4 144.83-8.55L144.83-8.55Q144.83-3.65 142.28-1.63 139.73 0.4 135.08 0.4ZM135.33-1.95L135.33-1.95Q135.88-1.95 136.56-2 137.23-2.05 137.63-2.15L137.63-2.15Q139.38-2.55 140.16-3.85 140.93-5.15 140.93-8L140.93-8Q140.93-10.4 140.01-11.83 139.08-13.25 137.08-13.95L137.08-13.95 135.53-14.5 134.08-15.2Q132.18-16.15 131.46-17.53 130.73-18.9 130.73-21.05L130.73-21.05Q130.73-23.6 131.36-24.88 131.98-26.15 133.68-26.5L133.68-26.5Q134.08-26.6 134.56-26.65 135.03-26.7 135.53-26.7L135.53-26.7Q136.43-26.7 137.08-26.55L137.08-26.55Q138.93-26.25 139.66-24.98 140.38-23.7 140.38-21.05L140.38-21.05 140.53-21.05Q140.68-23.9 139.91-25.15 139.13-26.4 137.08-26.7L137.08-26.7Q136.73-26.75 136.33-26.78 135.93-26.8 135.53-26.8L135.53-26.8Q134.43-26.8 133.68-26.65L133.68-26.65Q131.78-26.3 130.93-25.03 130.08-23.75 130.08-21.05L130.08-21.05Q130.08-16.6 133.98-15L133.98-15 135.48-14.4 136.98-13.75Q138.93-12.9 139.63-11.6 140.33-10.3 140.33-8L140.33-8Q140.33-5.3 139.76-3.98 139.18-2.65 137.58-2.3L137.58-2.3Q137.18-2.2 136.53-2.13 135.88-2.05 135.33-2.05L135.33-2.05Q134.93-2.05 134.31-2.1 133.68-2.15 133.33-2.25L133.33-2.25Q131.53-2.6 130.86-3.9 130.18-5.2 130.18-8.05L130.18-8.05 130.03-8.05Q129.88-5.05 130.61-3.73 131.33-2.4 133.28-2.1L133.28-2.1Q133.63-2.05 134.28-2 134.93-1.95 135.33-1.95ZM155.58 0.6L155.58 0.6Q152.63 0.6 150.66-0.03 148.68-0.65 147.73-2.55 146.78-4.45 146.78-8.15L146.78-8.15 146.78-29.55 154.73-29.55 154.73-5.75Q154.73-4.9 154.96-4.58 155.18-4.25 155.58-4.25L155.58-4.25Q155.98-4.25 156.21-4.58 156.43-4.9 156.43-5.75L156.43-5.75 156.43-29.55 164.38-29.55 164.38-8.2Q164.38-4.5 163.43-2.6 162.48-0.7 160.53-0.05 158.58 0.6 155.58 0.6ZM153.98-2.25L153.98-2.25 155.33-2.25Q155.63-2.25 155.78-2.3L155.78-2.3Q155.88-2.25 156.13-2.25L156.13-2.25 157.33-2.25Q160.53-2.25 160.63-5.7L160.63-5.7 160.93-15 160.63-27.35 160.43-27.35 160.23-15.05 160.43-5.7Q160.48-2.55 157.33-2.45L157.33-2.45 156.63-2.45Q156.43-2.4 156.13-2.4L156.13-2.4 155.33-2.4 154.73-2.45 153.98-2.45Q150.78-2.45 150.88-5.7L150.88-5.7 151.08-15.05 150.88-27.35 150.68-27.35 150.38-15 150.68-5.7Q150.78-2.25 153.98-2.25ZM175.18 0L166.88 0 166.88-29.55 178.48-29.55Q181.78-29.55 183.25-28.15 184.73-26.75 184.73-24.5L184.73-24.5 184.73-20Q184.73-17.85 183.85-16.15 182.98-14.45 180.58-13.9L180.58-13.9Q181.78-13.8 182.48-13.15 183.18-12.5 183.83-10.75L183.83-10.75 186.58 0 177.73 0 175.18-13.1 175.18 0ZM176.38-14.6L176.38-14.5 177.48-14.5Q179.03-14.5 179.85-15.6 180.68-16.7 181-18.4 181.33-20.1 181.33-21.9L181.33-21.9Q181.33-25.1 180.43-26.33 179.53-27.55 177.18-27.45L177.18-27.45 175.58-27.4 175.58-27.3 177.18-27.25Q178.78-27.2 179.55-26.7 180.33-26.2 180.55-25.05 180.78-23.9 180.78-21.9L180.78-21.9Q180.78-20.45 180.58-18.78 180.38-17.1 179.68-15.93 178.98-14.75 177.48-14.65L177.48-14.65 176.38-14.6ZM170.73-15L170.93-2.35 171.13-2.35 171.38-15 171.18-27.35 170.98-27.35 170.73-15ZM175.18-25.35L175.18-16 175.78-16Q176.48-16 176.65-17.13 176.83-18.25 176.83-20.4L176.83-20.4Q176.83-21.8 176.8-22.75 176.78-23.7 176.73-24.25L176.73-24.25Q176.68-25.35 175.93-25.35L175.93-25.35 175.18-25.35ZM181.38-2.35L181.38-2.35 181.78-2.35Q181.58-3.1 181.23-4.65 180.88-6.2 180.43-7.98 179.98-9.75 179.38-11.2 178.78-12.65 177.98-13.25L177.98-13.25 177.93-13.25Q178.68-12.65 179.18-11.33 179.68-10 180.03-8.38 180.38-6.75 180.7-5.15 181.03-3.55 181.38-2.35ZM195.03 0L186.38 0 190.63-29.55 202.38-29.55 206.53 0 197.58 0 197.18-4.3 195.33-4.3 195.03 0ZM191.88-15.05L190.48-2.35 190.68-2.35 190.83-3.4Q190.93-3.95 190.98-4.6L190.98-4.6 191.13-6.15 196.28-6.2 201.38-6.15 201.78-2.35 202.03-2.35 200.83-14.95 199.28-27.45 196.43-27.35 193.83-27.45 191.88-15.05ZM201.33-6.35L196.28-6.25 191.18-6.35 192.43-15 194.03-27.25 196.43-27.3 199.08-27.25 200.23-14.95 201.33-6.35ZM196.28-23.3L195.38-8.15 197.18-8.15 196.28-23.3ZM214.87 0L207.92 0 207.92-29.55 214.82-29.55 218.42-15.8 218.42-29.55 225.37-29.55 225.37 0 218.52 0 214.87-12.25 214.87 0ZM211.17-15L211.32-2.35 211.57-2.35 211.72-15 211.57-26.7 215.92-15.25 221.72-2.35 221.87-2.35 222.02-15 221.87-27.35 221.62-27.35 221.47-15 221.67-2.85 216.62-14.95 211.47-27.35 211.32-27.35 211.17-15ZM236.72 0.6L236.72 0.6Q233.72 0.6 231.7-0.15 229.67-0.9 228.65-2.93 227.62-4.95 227.62-8.65L227.62-8.65 227.62-23.25Q227.62-26.95 230.12-28.48 232.62-30 236.72-30L236.72-30Q240.82-30 243.15-28.48 245.47-26.95 245.47-23.25L245.47-23.25 245.47-16.35 237.52-16.35 237.52-23.65Q237.52-24.5 237.32-24.85L237.32-24.85Q237.12-25.15 236.72-25.15L236.72-25.15Q236.37-25.15 236.12-24.85L236.12-24.85Q235.92-24.5 235.92-23.65L235.92-23.65 235.92-5.5Q235.92-4.6 236.12-4.35L236.12-4.35Q236.32-4 236.72-4L236.72-4Q237.12-4 237.32-4.35L237.32-4.35Q237.52-4.6 237.52-5.5L237.52-5.5 237.52-12.4 245.47-12.4 245.47-8.7Q245.47-4.95 244.55-2.95 243.62-0.95 241.67-0.18 239.72 0.6 236.72 0.6ZM236.72-2.2L236.72-2.2Q237.32-2.2 237.85-2.23 238.37-2.25 238.82-2.4L238.82-2.4Q240.32-2.85 240.97-4.03 241.62-5.2 241.62-7.8L241.62-7.8 241.52-10.8 241.42-10.8 241.37-7.8Q241.37-5.4 240.77-4.23 240.17-3.05 238.72-2.6L238.72-2.6Q237.92-2.3 236.72-2.3L236.72-2.3Q235.52-2.3 234.62-2.6L234.62-2.6Q233.32-3 232.72-4.2 232.12-5.4 232.12-7.8L232.12-7.8 232.32-14.7 232.12-23.3Q232.12-24.8 232.72-25.75 233.32-26.7 234.77-27.05L234.77-27.05Q235.22-27.15 235.72-27.23 236.22-27.3 236.72-27.3L236.72-27.3Q237.77-27.3 238.52-27.1L238.52-27.1Q240.02-26.75 240.67-25.85 241.32-24.95 241.32-23.65L241.32-23.65 241.37-18.9 241.47-18.9 241.57-23.65Q241.57-25.05 240.87-25.98 240.17-26.9 238.57-27.3L238.57-27.3Q238.42-27.35 238.22-27.38 238.02-27.4 237.77-27.4L237.77-27.4 236.72-27.4Q236.17-27.4 235.65-27.38 235.12-27.35 234.77-27.25L234.77-27.25Q233.22-26.9 232.57-25.9 231.92-24.9 231.92-23.3L231.92-23.3 231.67-14.7 231.92-7.8Q231.92-5.25 232.57-4.03 233.22-2.8 234.52-2.4L234.52-2.4Q234.97-2.25 235.52-2.23 236.07-2.2 236.72-2.2ZM261.92 0L247.62 0 247.62-29.55 261.92-29.55 261.92-24 255.92-24 255.92-18.25 261.42-18.25 261.42-12 255.92-12 255.92-5.4 261.92-5.4 261.92 0ZM251.42-15L251.62-2.75 259.87-2.8 259.87-2.9 251.87-2.95 252.07-14.9 258.62-14.95 258.62-15.05 252.07-15.1 251.87-26.6 259.87-26.65 259.87-26.75 251.62-26.8 251.42-15Z" fill="black"></path></g></svg></g></svg></g><g transform="matrix(1,0,0,1,0,34.06238104812502)"><svg viewBox="0 0 176.47944191999997 18.955431017993615" height="18.955431017993615" width="176.47944191999997"><g transform="matrix(1,0,0,1,0,0)"><svg width="176.47944191999997" viewBox="0.95 -36.85 423.11 45.45" height="18.955431017993615" data-palette-color="#0074d9"><path d="M17.45 0L12.6 0 12.6-31.75 0.95-31.75 0.95-35.85 29-35.85 29-31.75 17.45-31.75 17.45 0ZM14.1 0L9 0 9-2.05Q9-2.5 9.2-2.78 9.4-3.05 9.8-3.1L9.8-3.1 13.55-3.9 14.1 0ZM21.05 0L15.95 0 16.5-3.9 20.25-3.1Q20.65-3.05 20.85-2.78 21.05-2.5 21.05-2.05L21.05-2.05 21.05 0ZM25.65-28L24.9-33 29-31.75 29-27.2 26.7-27.2Q26.3-27.2 26.03-27.38 25.75-27.55 25.65-28L25.65-28ZM0.95-31.75L5.05-33 4.3-28Q4.25-27.55 3.95-27.38 3.65-27.2 3.25-27.2L3.25-27.2 0.95-27.2 0.95-31.75ZM37.35 0.4L37.35 0.4Q35.35 0.4 33.75-0.38 32.15-1.15 31.2-2.65 30.25-4.15 30.25-6.35L30.25-6.35Q30.25-7.85 31.07-9.22 31.9-10.6 33.75-11.7L33.75-11.7Q35.6-12.75 38.57-13.45 41.55-14.15 45.85-14.25L45.85-14.25 45.85-16.2Q45.85-19.15 44.57-20.68 43.3-22.2 40.85-22.2L40.85-22.2Q39.55-22.2 38.12-21.53 36.7-20.85 35.5-20.18 34.3-19.5 33.6-19.5L33.6-19.5Q33.15-19.5 32.82-19.75 32.5-20 32.3-20.35L32.3-20.35 31.5-21.75Q33.6-23.8 36.02-24.8 38.45-25.8 41.4-25.8L41.4-25.8Q44.25-25.8 46.2-24.6 48.15-23.4 49.17-21.25 50.2-19.1 50.2-16.2L50.2-16.2 50.2 0 48.25 0Q47.6 0 47.2-0.2 46.8-0.4 46.65-1.05L46.65-1.05 46.15-3.4Q44.15-1.6 42.15-0.6 40.15 0.4 37.35 0.4ZM38.65-2.75L38.65-2.75Q40.9-2.75 42.6-3.65 44.3-4.55 45.85-6.15L45.85-6.15 45.85-11.4Q43.25-11.35 41.15-11.03 39.05-10.7 37.57-10.13 36.1-9.55 35.32-8.68 34.55-7.8 34.55-6.55L34.55-6.55Q34.55-4.55 35.72-3.65 36.9-2.75 38.65-2.75ZM53.8 0L48.7 0 49.25-3.9 53-3.1Q53.4-3.05 53.6-2.78 53.8-2.5 53.8-2.05L53.8-2.05 53.8 0ZM63.9 0L59.45 0 59.45-36.85 63.9-36.85 63.9-15.15 65.05-15.15Q65.55-15.15 65.9-15.3 66.25-15.45 66.6-15.85L66.6-15.85 74.6-24.45Q75-24.85 75.35-25.1 75.7-25.35 76.35-25.35L76.35-25.35 80.4-25.35 71.05-15.4Q70.7-15.05 70.37-14.7 70.05-14.35 69.6-14.1L69.6-14.1Q70.45-13.5 71.1-12.5L71.1-12.5 81 0 77 0Q76.45 0 76.1-0.23 75.75-0.45 75.35-0.9L75.35-0.9 67-11.25Q66.65-11.8 66.27-11.95 65.9-12.1 65.15-12.1L65.15-12.1 63.9-12.1 63.9 0ZM75.95-21.45L75.25-21.3 74.2-22.95 74.2-25.35 80-25.35 75.95-21.45ZM77.55-3.9L77 0 74.6-4.55 77.55-3.9ZM60.95 0L55.85 0 55.85-2.05Q55.85-2.5 56.05-2.78 56.25-3.05 56.65-3.1L56.65-3.1 60.4-3.9 60.95 0ZM67.5 0L62.4 0 62.95-3.9 66.7-3.1Q67.1-3.05 67.3-2.78 67.5-2.5 67.5-2.05L67.5-2.05 67.5 0ZM55.85-36.85L60.95-36.85 60.4-32.95 56.65-33.75Q56.25-33.85 56.05-34.1 55.85-34.35 55.85-34.8L55.85-34.8 55.85-36.85ZM75.4-25.35L80.5-25.35 80.5-23.3Q80.5-22.85 80.3-22.6 80.1-22.35 79.7-22.25L79.7-22.25 75.95-21.45 75.4-25.35ZM70.25-25.35L75.35-25.35 74.8-21.45 71.05-22.25Q70.65-22.35 70.45-22.6 70.25-22.85 70.25-23.3L70.25-23.3 70.25-25.35ZM82.1 0L77 0 77.55-3.9 81.3-3.1Q81.7-3.05 81.9-2.78 82.1-2.5 82.1-2.05L82.1-2.05 82.1 0ZM95.89 0.35L95.89 0.35Q92.24 0.35 89.52-1.3 86.79-2.95 85.29-6 83.79-9.05 83.79-13.2L83.79-13.2Q83.79-16.75 85.24-19.6 86.69-22.45 89.37-24.1 92.04-25.75 95.64-25.75L95.64-25.75Q98.79-25.75 101.14-24.35 103.49-22.95 104.82-20.43 106.14-17.9 106.14-14.4L106.14-14.4Q106.14-13.35 105.92-13 105.69-12.65 105.04-12.65L105.04-12.65 88.19-12.65Q88.19-12.5 88.19-12.33 88.19-12.15 88.19-12L88.19-12Q88.44-7.8 90.54-5.48 92.64-3.15 96.24-3.15L96.24-3.15Q97.79-3.15 99.32-3.78 100.84-4.4 102.02-5 103.19-5.6 103.69-5.6L103.69-5.6Q104.24-5.6 104.54-5.2L104.54-5.2 105.79-3.55Q104.79-2.25 103.12-1.38 101.44-0.5 99.54-0.08 97.64 0.35 95.89 0.35ZM88.34-15.45L88.34-15.45 102.14-15.45Q102.14-18.55 100.44-20.5 98.74-22.45 95.74-22.45L95.74-22.45Q92.49-22.45 90.64-20.6 88.79-18.75 88.34-15.45ZM129.74 0.4L129.74 0.4Q127.74 0.4 126.14-0.38 124.54-1.15 123.59-2.65 122.64-4.15 122.64-6.35L122.64-6.35Q122.64-7.85 123.46-9.22 124.29-10.6 126.14-11.7L126.14-11.7Q127.99-12.75 130.96-13.45 133.94-14.15 138.24-14.25L138.24-14.25 138.24-16.2Q138.24-19.15 136.96-20.68 135.69-22.2 133.24-22.2L133.24-22.2Q131.94-22.2 130.51-21.53 129.09-20.85 127.89-20.18 126.69-19.5 125.99-19.5L125.99-19.5Q125.54-19.5 125.21-19.75 124.89-20 124.69-20.35L124.69-20.35 123.89-21.75Q125.99-23.8 128.41-24.8 130.84-25.8 133.79-25.8L133.79-25.8Q136.64-25.8 138.59-24.6 140.54-23.4 141.56-21.25 142.59-19.1 142.59-16.2L142.59-16.2 142.59 0 140.64 0Q139.99 0 139.59-0.2 139.19-0.4 139.04-1.05L139.04-1.05 138.54-3.4Q136.54-1.6 134.54-0.6 132.54 0.4 129.74 0.4ZM131.04-2.75L131.04-2.75Q133.29-2.75 134.99-3.65 136.69-4.55 138.24-6.15L138.24-6.15 138.24-11.4Q135.64-11.35 133.54-11.03 131.44-10.7 129.96-10.13 128.49-9.55 127.71-8.68 126.94-7.8 126.94-6.55L126.94-6.55Q126.94-4.55 128.11-3.65 129.29-2.75 131.04-2.75ZM146.19 0L141.09 0 141.64-3.9 145.39-3.1Q145.79-3.05 145.99-2.78 146.19-2.5 146.19-2.05L146.19-2.05 146.19 0ZM172.58 0.4L172.58 0.4Q170.68 0.4 168.71 0.08 166.73-0.25 165.06-0.7 163.38-1.15 162.38-1.5L162.38-1.5 162.38-5.95 166.23-5Q168.28-4.25 169.71-3.95 171.13-3.65 172.98-3.65L172.98-3.65Q175.23-3.65 176.86-4.45 178.48-5.25 179.38-6.7 180.28-8.15 180.28-10L180.28-10Q180.28-11.75 179.53-12.85 178.78-13.95 177.53-14.63 176.28-15.3 174.76-15.78 173.23-16.25 171.63-16.8L171.63-16.8Q169.58-17.5 167.61-18.55 165.63-19.6 164.38-21.38 163.13-23.15 163.13-26.1L163.13-26.1Q163.13-29.05 164.51-31.35 165.88-33.65 168.38-34.95 170.88-36.25 174.28-36.25L174.28-36.25Q176.43-36.25 179.06-35.73 181.68-35.2 184.03-34.2L184.03-34.2 184.03-30.5 180.23-31.25Q178.63-31.7 177.06-31.95 175.48-32.2 174.28-32.2L174.28-32.2Q171.23-32.2 169.43-30.68 167.63-29.15 167.63-26.75L167.63-26.75Q167.63-24.65 168.91-23.5 170.18-22.35 172.16-21.65 174.13-20.95 176.23-20.2L176.23-20.2Q178.58-19.4 180.53-18.3 182.48-17.2 183.66-15.43 184.83-13.65 184.83-10.7L184.83-10.7Q184.83-7.55 183.36-5.03 181.88-2.5 179.16-1.05 176.43 0.4 172.58 0.4ZM180.68-26.75L179.93-31.75 184.03-30.5 184.03-25.95 181.73-25.95Q181.33-25.95 181.06-26.13 180.78-26.3 180.68-26.75L180.68-26.75ZM165.73-9.7L166.48-4.7 162.38-5.95 162.38-10.5 164.68-10.5Q165.08-10.5 165.38-10.33 165.68-10.15 165.73-9.7L165.73-9.7ZM200.88 0.35L200.88 0.35Q197.23 0.35 194.51-1.3 191.78-2.95 190.28-6 188.78-9.05 188.78-13.2L188.78-13.2Q188.78-16.75 190.23-19.6 191.68-22.45 194.36-24.1 197.03-25.75 200.63-25.75L200.63-25.75Q203.78-25.75 206.13-24.35 208.48-22.95 209.81-20.43 211.13-17.9 211.13-14.4L211.13-14.4Q211.13-13.35 210.91-13 210.68-12.65 210.03-12.65L210.03-12.65 193.18-12.65Q193.18-12.5 193.18-12.33 193.18-12.15 193.18-12L193.18-12Q193.43-7.8 195.53-5.48 197.63-3.15 201.23-3.15L201.23-3.15Q202.78-3.15 204.31-3.78 205.83-4.4 207.01-5 208.18-5.6 208.68-5.6L208.68-5.6Q209.23-5.6 209.53-5.2L209.53-5.2 210.78-3.55Q209.78-2.25 208.11-1.38 206.43-0.5 204.53-0.08 202.63 0.35 200.88 0.35ZM193.33-15.45L193.33-15.45 207.13-15.45Q207.13-18.55 205.43-20.5 203.73-22.45 200.73-22.45L200.73-22.45Q197.48-22.45 195.63-20.6 193.78-18.75 193.33-15.45ZM225.73 0.35L225.73 0.35Q222.43 0.35 219.9-1.28 217.38-2.9 215.95-5.85 214.53-8.8 214.53-12.7L214.53-12.7Q214.53-16.5 215.88-19.45 217.23-22.4 219.88-24.08 222.53-25.75 226.48-25.75L226.48-25.75Q228.03-25.75 230.08-25.23 232.13-24.7 233.98-23.95L233.98-23.95 233.98-21.25 231.38-21.4Q230.38-21.75 229.25-22 228.13-22.25 226.73-22.25L226.73-22.25Q224.18-22.25 222.5-21.08 220.83-19.9 219.98-17.75 219.13-15.6 219.13-12.7L219.13-12.7Q219.13-8.35 221.03-5.73 222.93-3.1 226.48-3.1L226.48-3.1Q228.43-3.1 229.68-3.73 230.93-4.35 231.73-4.98 232.53-5.6 232.98-5.6L232.98-5.6Q233.23-5.6 233.45-5.5 233.68-5.4 233.83-5.2L233.83-5.2 235.08-3.55Q233.43-1.55 230.98-0.6 228.53 0.35 225.73 0.35ZM231.28-18.15L230.78-21.9 233.98-21.25 233.98-17.35 232.33-17.35Q231.83-17.35 231.58-17.57 231.33-17.8 231.28-18.15L231.28-18.15ZM248.88 0.4L248.88 0.4Q246.13 0.4 244.23-0.83 242.33-2.05 241.35-4.2 240.38-6.35 240.38-9.2L240.38-9.2 240.38-25.35 244.83-25.35 244.83-9.2Q244.83-6.3 246.15-4.73 247.48-3.15 250.18-3.15L250.18-3.15Q252.13-3.15 253.85-4.08 255.58-5 257.03-6.65L257.03-6.65 257.03-25.35 261.48-25.35 261.48 0 258.83 0Q257.83 0 257.63-0.95L257.63-0.95 257.28-3.65Q255.63-1.85 253.58-0.73 251.53 0.4 248.88 0.4ZM265.08 0L259.98 0 260.53-3.9 264.28-3.1Q264.68-3.05 264.88-2.78 265.08-2.5 265.08-2.05L265.08-2.05 265.08 0ZM236.78-25.35L241.88-25.35 241.33-21.45 237.58-22.25Q237.18-22.35 236.98-22.6 236.78-22.85 236.78-23.3L236.78-23.3 236.78-25.35ZM253.43-25.35L258.53-25.35 257.98-21.45 254.23-22.25Q253.83-22.35 253.63-22.6 253.43-22.85 253.43-23.3L253.43-23.3 253.43-25.35ZM275.17 0L270.72 0 270.72-25.35 273.27-25.35Q274.02-25.35 274.32-25.08 274.62-24.8 274.67-24.1L274.67-24.1 274.97-20.15Q276.27-22.8 278.17-24.3 280.07-25.8 282.67-25.8L282.67-25.8Q283.72-25.8 284.57-25.55 285.42-25.3 286.12-24.9L286.12-24.9 285.57-21.55Q285.52-21.25 285.3-21.1 285.07-20.95 284.77-20.95L284.77-20.95Q284.42-20.95 283.42-21.18 282.42-21.4 281.67-21.4L281.67-21.4Q279.37-21.4 277.8-20.05 276.22-18.7 275.17-16.15L275.17-16.15 275.17 0ZM278.77 0L273.67 0 274.22-3.9 277.97-3.1Q278.37-3.05 278.57-2.78 278.77-2.5 278.77-2.05L278.77-2.05 278.77 0ZM272.22 0L267.12 0 267.12-2.05Q267.12-2.5 267.32-2.78 267.52-3.05 267.92-3.1L267.92-3.1 271.67-3.9 272.22 0ZM267.12-25.35L272.22-25.35 271.67-21.45 267.92-22.25Q267.52-22.35 267.32-22.6 267.12-22.85 267.12-23.3L267.12-23.3 267.12-25.35ZM300.62 0.35L300.62 0.35Q296.97 0.35 294.25-1.3 291.52-2.95 290.02-6 288.52-9.05 288.52-13.2L288.52-13.2Q288.52-16.75 289.97-19.6 291.42-22.45 294.1-24.1 296.77-25.75 300.37-25.75L300.37-25.75Q303.52-25.75 305.87-24.35 308.22-22.95 309.55-20.43 310.87-17.9 310.87-14.4L310.87-14.4Q310.87-13.35 310.65-13 310.42-12.65 309.77-12.65L309.77-12.65 292.92-12.65Q292.92-12.5 292.92-12.33 292.92-12.15 292.92-12L292.92-12Q293.17-7.8 295.27-5.48 297.37-3.15 300.97-3.15L300.97-3.15Q302.52-3.15 304.05-3.78 305.57-4.4 306.75-5 307.92-5.6 308.42-5.6L308.42-5.6Q308.97-5.6 309.27-5.2L309.27-5.2 310.52-3.55Q309.52-2.25 307.85-1.38 306.17-0.5 304.27-0.08 302.37 0.35 300.62 0.35ZM293.07-15.45L293.07-15.45 306.87-15.45Q306.87-18.55 305.17-20.5 303.47-22.45 300.47-22.45L300.47-22.45Q297.22-22.45 295.37-20.6 293.52-18.75 293.07-15.45ZM338.32 0.4L338.32 0.4Q336.42 0.4 334.44 0.08 332.47-0.25 330.79-0.7 329.12-1.15 328.12-1.5L328.12-1.5 328.12-5.95 331.97-5Q334.02-4.25 335.44-3.95 336.87-3.65 338.72-3.65L338.72-3.65Q340.97-3.65 342.59-4.45 344.22-5.25 345.12-6.7 346.02-8.15 346.02-10L346.02-10Q346.02-11.75 345.27-12.85 344.52-13.95 343.27-14.63 342.02-15.3 340.49-15.78 338.97-16.25 337.37-16.8L337.37-16.8Q335.32-17.5 333.34-18.55 331.37-19.6 330.12-21.38 328.87-23.15 328.87-26.1L328.87-26.1Q328.87-29.05 330.24-31.35 331.62-33.65 334.12-34.95 336.62-36.25 340.02-36.25L340.02-36.25Q342.17-36.25 344.79-35.73 347.42-35.2 349.77-34.2L349.77-34.2 349.77-30.5 345.97-31.25Q344.37-31.7 342.79-31.95 341.22-32.2 340.02-32.2L340.02-32.2Q336.97-32.2 335.17-30.68 333.37-29.15 333.37-26.75L333.37-26.75Q333.37-24.65 334.64-23.5 335.92-22.35 337.89-21.65 339.87-20.95 341.97-20.2L341.97-20.2Q344.32-19.4 346.27-18.3 348.22-17.2 349.39-15.43 350.57-13.65 350.57-10.7L350.57-10.7Q350.57-7.55 349.09-5.03 347.62-2.5 344.89-1.05 342.17 0.4 338.32 0.4ZM346.42-26.75L345.67-31.75 349.77-30.5 349.77-25.95 347.47-25.95Q347.07-25.95 346.79-26.13 346.52-26.3 346.42-26.75L346.42-26.75ZM331.47-9.7L332.22-4.7 328.12-5.95 328.12-10.5 330.42-10.5Q330.82-10.5 331.12-10.33 331.42-10.15 331.47-9.7L331.47-9.7ZM363.71 0.4L363.71 0.4Q360.71 0.4 359.09-1.28 357.46-2.95 357.46-6.1L357.46-6.1 357.46-21.6 354.41-21.6Q354.01-21.6 353.74-21.85 353.46-22.1 353.46-22.6L353.46-22.6 353.46-24.35 357.61-24.9 358.66-32.7Q358.76-33.55 359.66-33.55L359.66-33.55 361.91-33.55 361.91-24.85 369.16-24.85 369.16-21.6 361.91-21.6 361.91-6.4Q361.91-4.8 362.69-4.03 363.46-3.25 364.71-3.25L364.71-3.25Q365.26-3.25 365.91-3.55 366.56-3.85 367.11-4.15 367.66-4.45 367.91-4.45L367.91-4.45Q368.26-4.45 368.51-4.05L368.51-4.05 369.81-1.9Q368.66-0.85 367.04-0.23 365.41 0.4 363.71 0.4ZM384.76 0.35L384.76 0.35Q381.11 0.35 378.39-1.3 375.66-2.95 374.16-6 372.66-9.05 372.66-13.2L372.66-13.2Q372.66-16.75 374.11-19.6 375.56-22.45 378.24-24.1 380.91-25.75 384.51-25.75L384.51-25.75Q387.66-25.75 390.01-24.35 392.36-22.95 393.69-20.43 395.01-17.9 395.01-14.4L395.01-14.4Q395.01-13.35 394.79-13 394.56-12.65 393.91-12.65L393.91-12.65 377.06-12.65Q377.06-12.5 377.06-12.33 377.06-12.15 377.06-12L377.06-12Q377.31-7.8 379.41-5.48 381.51-3.15 385.11-3.15L385.11-3.15Q386.66-3.15 388.19-3.78 389.71-4.4 390.89-5 392.06-5.6 392.56-5.6L392.56-5.6Q393.11-5.6 393.41-5.2L393.41-5.2 394.66-3.55Q393.66-2.25 391.99-1.38 390.31-0.5 388.41-0.08 386.51 0.35 384.76 0.35ZM377.21-15.45L377.21-15.45 391.01-15.45Q391.01-18.55 389.31-20.5 387.61-22.45 384.61-22.45L384.61-22.45Q381.36-22.45 379.51-20.6 377.66-18.75 377.21-15.45ZM406.16 8.6L401.71 8.6 401.71-25.35 404.36-25.35Q405.36-25.35 405.56-24.4L405.56-24.4 405.96-21.4Q407.56-23.4 409.66-24.6 411.76-25.8 414.46-25.8L414.46-25.8Q417.56-25.8 419.71-24.2 421.86-22.6 422.96-19.7 424.06-16.8 424.06-12.85L424.06-12.85Q424.06-9.2 422.76-6.2 421.46-3.2 419.01-1.43 416.56 0.35 413.11 0.35L413.11 0.35Q410.76 0.35 409.11-0.43 407.46-1.2 406.16-2.65L406.16-2.65 406.16 8.6ZM412.11-3.1L412.11-3.1Q414.51-3.1 416.13-4.23 417.76-5.35 418.61-7.55 419.46-9.75 419.46-12.85L419.46-12.85Q419.46-17.45 417.86-19.83 416.26-22.2 413.01-22.2L413.01-22.2Q410.81-22.2 409.18-21.2 407.56-20.2 406.16-18.35L406.16-18.35 406.16-6.1Q407.41-4.45 408.86-3.78 410.31-3.1 412.11-3.1ZM398.11-25.35L403.21-25.35 402.66-21.45 398.91-22.25Q398.51-22.35 398.31-22.6 398.11-22.85 398.11-23.3L398.11-23.3 398.11-25.35ZM403.21 8.6L398.11 8.6 398.11 6.55Q398.11 6.1 398.31 5.83 398.51 5.55 398.91 5.5L398.91 5.5 402.66 4.7 403.21 8.6ZM409.76 8.6L404.66 8.6 405.21 4.7 408.96 5.5Q409.36 5.55 409.56 5.83 409.76 6.1 409.76 6.55L409.76 6.55 409.76 8.6Z" opacity="1" transform="matrix(1,0,0,1,0,0)" fill="black" class="slogan-text-1" id="SvgjsPath2689"></path></svg></g></svg></g></svg></g></svg></g><g><svg viewBox="0 0 130.4848509657691 130.4848509657691" height="130.4848509657691" width="130.4848509657691"><g><svg></svg></g><g id="SvgjsG2688"><svg viewBox="0 0 130.4848509657691 130.4848509657691" height="130.4848509657691" width="130.4848509657691"><g><path d="M0 65.242c0-36.032 29.21-65.242 65.242-65.242 36.032 0 65.242 29.21 65.243 65.242 0 36.032-29.21 65.242-65.243 65.243-36.032 0-65.242-29.21-65.242-65.243zM65.242 128c34.66 0 62.757-28.097 62.758-62.758 0-34.66-28.097-62.757-62.758-62.757-34.66 0-62.757 28.097-62.757 62.757 0 34.66 28.097 62.757 62.757 62.758z" fill="white" stroke="transparent"></path></g><g transform="matrix(1,0,0,1,28.37011789296934,26.207027090772925)"><svg viewBox="0 0 73.74461517983043 78.07079678422326" height="78.07079678422326" width="73.74461517983043"><g><svg xmlns="http://www.w3.org/2000/svg" xml:space="preserve" viewBox="5.996 4.588 48.00860527751525 50.824999999999996" x="0" y="0" height="78.07079678422326" width="73.74461517983043" class="icon-dxe-0" data-fill-palette-color="accent" id="SvgjsSvg2687"><path d="M53.662 27.261c-8.971 0-10.659-5.508-10.659-5.508h-5.505s-1.688 5.508-10.658 5.508c0 1.509-3.729 21.402 13.411 28.152C57.39 48.662 53.662 28.77 53.662 27.261m-5.01 13.49h-6.234v6.234h-4.337v-6.234h-6.232v-4.337h6.232v-6.233h4.337v6.233h6.234zM16.218 8.621h18.051v2.21H16.218zM9.258 13.179h5.328v0.87H9.258zM34.922 13.179h5.329v0.87h-5.329zM9.258 15.462h6.96v0.87h-6.96z" fill="white"></path><path d="M6.865 41.421V5.457H43.62v15.035c0.292 0.077 0.585 0.152 0.87 0.245V4.588H5.996v37.703h18.918c-0.124-0.285-0.23-0.579-0.337-0.87z" fill="white"></path><path d="M34.922 15.462h5.329v0.87h-5.329zM32.601 21.117h0.961a16 16 0 0 1 2.925-0.87H8.823v17.239H23.66c-0.028-0.285-0.031-0.578-0.043-0.869h-1.31v-4.48h1.741c0.07-0.291 0.137-0.584 0.224-0.87h-1.965v-10.15z m-19.282 15.5H9.693v-4.48h3.626z m0-5.351H9.693V21.117h3.626z m8.119 5.351h-7.25v-4.48h7.25z m0-5.351h-7.25V21.117h7.25z" fill="white"></path></svg></g></svg></g></svg></g></svg></g></svg></g></svg></g><g><path d="M0 123.6c0-68.262 55.338-123.6 123.6-123.6 53.081 0 98.348 33.461 115.856 80.441l-0.836 0c-17.471-46.539-62.378-79.659-115.02-79.658-67.83 0-122.817 54.987-122.817 122.817 0 67.83 54.987 122.817 122.817 122.817 52.642 0 97.549-33.12 115.02-79.658h0.836c-17.508 46.98-62.774 80.441-115.856 80.441-68.262 0-123.6-55.338-123.6-123.6z" fill="black" stroke="transparent"></path></g></svg></g><defs><mask></mask></defs></svg><rect width="395.52" height="247.2" fill="black" stroke="none" visibility="hidden"></rect></g></mask><linearGradient x1="0" x2="1" y1="0.5" y2="0.5" id="95d35f13-20ed-4511-a00d-a922280190ea"><stop stop-color="#fff72e" offset="0"></stop><stop stop-color="#deae29" offset="1"></stop></linearGradient><rect width="395.52" height="247.2" fill="url(#95d35f13-20ed-4511-a00d-a922280190ea)" mask="url(#712546c5-dd7d-4afb-83d1-1b867dfc2c23)" data-fill-palette-color="accent"></rect></svg><rect width="395.52" height="247.2" fill="none" stroke="none" visibility="hidden"></rect></g></svg></g></svg>