<svg id="Layer_1" data-name="Layer 1" xmlns="http://www.w3.org/2000/svg" viewBox="0 0 2314.47 482.41"><defs><style>.cls-1{fill:#08609f;}.cls-2{fill:#3f95d1;}</style></defs><path class="cls-1" d="M175.4,360.38l-73.56,52.3C39.78,381.23,0,318.76,0,230.52a271.45,271.45,0,0,1,2-33.36,224.7,224.7,0,0,1,12-50,180.85,180.85,0,0,1,43-67.39c1.17-1,2.25-2.09,3.34-3.09,1.58-1.5,3.17-2.92,4.83-4.34.26-.25.59-.41.84-.67,2.42-2,4.83-3.92,7.26-5.75S78.4,62.13,81,60.37A187.71,187.71,0,0,1,131.7,36c3.59-1.17,7.25-2.17,10.92-3.17q3.13-.87,6.26-1.5C154.05,30,159.3,29,164.73,28.18Q177,26.31,190,25.43a.15.15,0,0,1,.25,0c2.92-.17,5.75-.25,8.67-.33,2.17-.17,4.34-.17,6.51-.17h2.42c97.41,0,163,33.69,189.66,112.18a218.64,218.64,0,0,1,7.92,30H323.78a102.2,102.2,0,0,0-6.09-14.93c-18-36.86-55.13-59.3-109.26-59.3-36.2,0-67,12.26-89.83,32.95A129,129,0,0,0,82.49,182c-.34,1.08-.67,2.09-1,3.17a151.53,151.53,0,0,0-6.67,45.37c0,76.48,42.53,119.27,100.58,129.86"/><path class="cls-2" d="M194.09,201.16v72.23H309.43l-21.18,15.27L186.25,362l-76.07,54.79c4.67,2.09,9.51,4.09,14.43,5.76a153.18,153.18,0,0,0,43,6.09h.5a115.39,115.39,0,0,0,66.83-21.88l44.68-32.08,55-39.62v95.33h72V201.16Z"/><path class="cls-1" d="M1352.56,184.66c0,33.28-21.43,52.88-61.13,52.88h-54.38V134h53.88c43.87,0,61.63,17.35,61.63,50.71"/><path class="cls-1" d="M1669.58,134h-63.47V235.7H1670c37,0,60.72-19.6,60.72-53.38,0-31.44-20-48.37-61.14-48.37m384.58-.42c-58.46,0-103.67,35.11-103.67,106.34S1995.7,345.8,2054.16,345.8C2114.3,345.8,2160,311,2160,239.87s-45.71-106.34-105.85-106.34m0,270.65c-92.24,0-165.72-59.38-165.72-164.31,0-105.5,73.48-164.31,165.72-164.31,94.42,0,167.4,54.3,167.4,164.31,0,104.93-73,164.31-167.4,164.31m-316.52-4.59-59.8-112.76h-71.73V399.59h-61.63V80.15h131.94c72.15,0,112.27,36.45,112.27,100.84,0,34.19-17.35,76.15-56.13,95.41L1807,399.59ZM1301.43,291.42h-64.38V399.59h-61.56V80.15h125.94c86.75,0,115.94,45.21,115.94,102.67,0,58.39-33.78,108.6-115.94,108.6M2260.26,0H1114a54.21,54.21,0,0,0-54.21,54.21v374A54.21,54.21,0,0,0,1114,482.41H2260.26a54.21,54.21,0,0,0,54.21-54.21v-374A54.21,54.21,0,0,0,2260.26,0M1669.58,134h-63.47V235.7H1670c37,0,60.72-19.6,60.72-53.38,0-31.44-20-48.37-61.14-48.37m0,0h-63.47V235.7H1670c37,0,60.72-19.6,60.72-53.38,0-31.44-20-48.37-61.14-48.37"/><path class="cls-1" d="M732.05,373.75c-73.06,0-129.61-43.45-129.61-132.53s56.55-133,129.61-133c75.4,0,132.45,44,132.45,133s-57,132.53-132.45,132.53m0-338.12c-115.35,0-207.26,73.65-207.26,205.59,0,131.37,91.91,205.6,207.26,205.6,118.18,0,209.6-74.23,209.6-205.6,0-137.62-91.42-205.59-209.6-205.59"/></svg>